<?xml version="1.0" encoding="utf-8"?>
<!-- Generator: Adobe Illustrator 23.0.3, SVG Export Plug-In . SVG Version: 6.00 Build 0)  -->
<svg version="1.1" id="Слой_1" xmlns="http://www.w3.org/2000/svg" xmlns:xlink="http://www.w3.org/1999/xlink" x="0px" y="0px"
	 viewBox="0 0 6521 1274.9" style="enable-background:new 0 0 6521 1274.9;" xml:space="preserve">
<style type="text/css">
	.st0{fill:#66B93E;}
	.st1{enable-background:new    ;}
</style>
<g id="_2813833863792">
	<path class="st0" d="M1854.9,987.5l-34.5-366.4l-153.7,366.4h-26.2l-160.6-366.4l-29,366.4h-50.2l43.3-483.6h81.2l149.2,340.4
		l142.1-340.4h79.1l47.1,483.6H1854.9L1854.9,987.5z M2114.8,987.5h-86.7V507.1h86.7V987.5z M2564.5,989.6l-301.3-336.8h-1
		c0.8,28.2,1.7,54.1,2.5,77.6c0.1,10.2,0.4,20.3,0.4,30.2c0.1,10.1,0.1,19.4,0.4,27.9c0.1,8.5,0.1,16,0.1,22.7c0,6.6,0,11.2,0,14.1
		v162.1h-50.8V503.9h38l301.6,335.2c-0.4-25.6-0.7-49.8-1-72.4c0-9.8,0-19.6-0.1-29.3c-0.1-10-0.4-19.4-0.5-28.4
		c-0.1-9.1-0.4-17.3-0.4-24.7c0-7.5,0-13.6,0-18V507.1h50.8v482.5H2564.5L2564.5,989.6z M2779.4,938.3h135.7
		c18.7-0.4,34.4-2.1,46.6-5.1c12.4-3.2,22.4-7.1,30.2-12.2c7.8-4.8,13.9-10,18.7-15.7c4.7-5.6,9-10.7,12.7-15.5l21.9,19.3
		c-3.5,7.3-8,15.9-13.3,25.4c-5.5,9.6-12.3,18.7-20.7,27s-18.6,15.5-30.5,21.3c-12.2,5.9-26.4,8.7-42.8,8.7c-8.1,0-19.9,0-35.3-0.1
		c-15.3-0.1-32.2-0.5-50.8-0.7c-18.4-0.4-37.3-0.7-57-1.3c-19.4-0.5-37.5-0.9-54.2-1.3c-16.7-0.1-31-0.6-42.8-0.7
		c-11.8-0.1-19.3-0.1-22.1-0.1v-32.9l213.4-396.2h-14.4c-13.6,0-29.4,0-47.5-0.1c-17.9-0.1-35.7-0.4-53.4-0.6
		c-17.6-0.1-34.1-0.5-49.1-0.9c-15.1-0.4-26.4-0.7-33.7-1l6.3-48.5h297.2v30.2L2779.4,938.3L2779.4,938.3z M3185.7,987.5h-86.6
		V507.1h86.6V987.5z M3372.5,987.5h-86.7V507.1h251.5l-3.8,47.7l-161,2.5v170.8l155.7,2.1l-4,44.3l-151.7,3.7V987.5L3372.5,987.5z
		 M3871.6,987.5l-50.2-161.7l-160.5,2.7l-51.5,159.1h-55L3723,511.7l84.2-16.2l157.2,492.1L3871.6,987.5L3871.6,987.5z
		 M3807.9,780.4L3743.3,573l-66.8,207.4H3807.9z M4231.4,987.5V557.2l-130.8-2.1l4.3-48.1h344.4l-4.3,46.6l-127,3.6v430.2
		L4231.4,987.5L4231.4,987.5z M4621,788.9h-29.2v198.6h-86.7V508c17.4-1.4,37.2-2.5,59.3-3.6c22.1-1,43.2-1.6,63.3-1.6
		c51.5,0,90.7,10.7,117.4,31.9c26.7,21.2,40,54.2,40,99.5c0,20.1-2.3,37.6-6.8,52.5c-4.5,15-10.4,27.9-17.9,39.1
		c-7.5,11-16.1,20.4-25.7,28.2c-9.8,7.6-19.9,14.1-30.5,19.3c12.7,24.7,24.6,48.1,36,69.8c11.6,21.9,23.1,41.1,34.5,57.3
		c11.4,16.4,23.3,29.3,35,39c11.8,9.4,24.6,14.2,38.2,14.2h3v31.1c-7,2.3-14.7,4.4-23.7,6c-8.7,1.6-18.7,2.3-29.9,2.3
		c-15.8,0-29.7-1.6-41.5-4.6c-11.8-3.2-23.3-10-34.5-20.4c-11.1-10.5-22.7-25.8-34.7-46.1c-11.9-20.1-25.9-47.5-41.6-82L4621,788.9
		L4621,788.9z M4607.1,741.9c11.9,0,23.6-1.6,34.7-5c11.1-3.2,19.9-7.3,26.4-12.3c3.2-2.3,6.4-5.6,9.6-9.3c3.2-3.9,6.1-8.9,8.7-15.1
		c2.5-6.2,4.7-14.2,6.1-24c1.7-9.6,2.5-21.9,2.5-36.3c0-16.4-1.7-30.1-5.1-41.3c-3.3-11-8.4-19.9-15.1-26.7
		c-6.8-6.7-15.3-11.7-25.2-14.6c-10-3-21.4-4.4-34.4-4.4c-3.5,0-7.5,0-11.9,0.1c-4.3,0.1-8.3,0.7-11.8,1.4v187.4L4607.1,741.9
		L4607.1,741.9z M5163,987.5l-50.2-161.7l-160.5,2.7l-51.5,159.1h-55l168.6-475.9l84.2-16.2l157.2,492.1L5163,987.5L5163,987.5z
		 M5099.2,780.4L5034.7,573l-66.8,207.4H5099.2L5099.2,780.4z M5606.5,507.1h52.6l-157.5,480.4h-84.7l-160-480.4h93.3L5431,766
		c6.1,19.9,11.9,39.3,17.4,58.2c5.5,18.8,10.6,35.9,15.1,51.2c5.1,17.8,10,34.8,14.2,51c5.1-19.4,10.6-38.8,16.6-58.4
		c4.8-16.5,10.1-34.7,15.8-54.1c5.6-19.6,11.3-37.6,16.8-54.2L5606.5,507.1L5606.5,507.1z M5965.8,987.5h-256.5V507.1H5957
		l-4.5,49.1l-156.5,2.1v155.9l147.4,2.1l-4,44.3l-143.4,3.7v172.4l173.7,3.7L5965.8,987.5L5965.8,987.5z M6040.1,987.5V507.1h86.6
		v430.2h162l-4.5,50.2L6040.1,987.5L6040.1,987.5z"/>
	<g transform="matrix(0.999999 0 0 1 5467.94 1605.25)">
		<g class="st1">
			<path class="st0" d="M897.1-1308.6c15.7,0,31,4,46,12.1s26.6,19.6,35,34.6s12.5,30.7,12.5,46.9c0,16.1-4.1,31.6-12.3,46.5
				s-19.8,26.4-34.6,34.7s-30.4,12.3-46.5,12.3c-16.2,0-31.7-4.1-46.5-12.3c-14.8-8.2-26.4-19.8-34.7-34.7
				c-8.3-14.9-12.4-30.4-12.4-46.5c0-16.3,4.2-31.9,12.6-46.9c8.4-15,20.1-26.5,35-34.6C866.1-1304.5,881.4-1308.6,897.1-1308.6z
				 M897.1-1293.1c-13.1,0-25.9,3.3-38.4,10.1c-12.4,6.7-22.2,16.4-29.2,28.9S819-1228.6,819-1215c0,13.5,3.5,26.4,10.4,38.7
				s16.5,22,29,28.9c12.4,6.9,25.3,10.4,38.8,10.4s26.4-3.5,38.8-10.4c12.4-6.9,22-16.5,28.9-28.9s10.3-25.3,10.3-38.7
				c0-13.6-3.5-26.6-10.4-39.1s-16.7-22.2-29.2-28.9C923-1289.7,910.2-1293.1,897.1-1293.1z M856.1-1163.3V-1264h34.6
				c11.8,0,20.4,1,25.6,2.8c5.3,1.9,9.5,5.1,12.7,9.7c3.1,4.6,4.7,9.6,4.7,14.7c0,7.3-2.6,13.8-7.9,19.2c-5.3,5.5-12.2,8.5-20.9,9.2
				c3.6,1.5,6.4,3.3,8.5,5.3c4.1,4,9,10.6,14.9,19.9l12.3,19.7h-19.9l-8.9-15.9c-7-12.4-12.7-20.3-17-23.4c-3-2.3-7.3-3.5-13-3.5
				h-9.6v42.7L856.1-1163.3L856.1-1163.3z M872.3-1220H892c9.4,0,15.9-1.4,19.3-4.2s5.1-6.5,5.1-11.2c0-3-0.8-5.6-2.4-8
				c-1.6-2.4-3.9-4.1-6.9-5.3c-3-1.2-8.4-1.7-16.3-1.7h-18.4L872.3-1220L872.3-1220z"/>
		</g>
	</g>
	<path class="st0" d="M692.5,173c-168.7-0.5-304.8,59.6-410.3,176.5c19.1-27.2,40.1-51.7,63.3-73.7
		c84.6-80.4,196.3-125.7,333.6-131.1c144.2-5.7,265.8,38.9,358,123.8c33.4,30.8,63,66.8,88.4,107.6
		C1017.1,241.7,873.6,172.5,692.5,173L692.5,173z M228.9,418C91,628.5,109.5,939.6,307.2,1104.6c31.3,26.9,45.8-18.7,34.1-24.8
		c-16.7-8.7-158.2-166.5-159-325.3c-0.2-49.6,2.1-91.5,7.5-128.5c36.1-247.8,263.1-410.1,502.8-415.9c248.4,6,474.8,174.7,505,432.8
		c3.8,32.8,5.5,69.4,5.3,111.6c-0.8,158.9-142.3,316.7-159,325.3c-11.7,6,2.8,51.7,34.1,24.8c184.7-154.2,208.6-409.6,113.5-618.5
		c-34.2-91.5-83.8-167.7-146.8-225.6c-94.6-86.9-218.8-132.5-366-126.8c-140.1,5.5-254.2,51.8-340.7,134.1
		C294.5,309.1,258.1,359.4,228.9,418L228.9,418z"/>
	<path class="st0" d="M667.6,866.1c-0.1,1-0.1,1.9,0,2.8c0.2,1.2,0.5,2.3,1,3.4C669,870.3,668.4,868.2,667.6,866.1z M658.6,843.9
		c0.2-1.2,0.2-2.3,0.1-3.5c-0.2-1.4-0.6-2.8-1.2-4C657,838.9,657.6,841.3,658.6,843.9L658.6,843.9z M650.5,874.1
		c0.6-1.5,0.9-2.9,0.8-4.2c-0.1-1.1-0.4-2.2-0.9-3.3C649.7,869.1,649.4,871.6,650.5,874.1L650.5,874.1z M735,429.6l-0.4-4.8
		c-0.4-4.7-0.7-9.6-1.4-14.4l-1.8-2.2l-1.8,2.2c-0.6,6.2-0.7,12.3-0.1,18.4c0.6,6,1.7,11.9,3.6,17.7l0.4,0.5l0.3-0.6
		c0.4-3.9,0.6-7.8,0.9-12L735,429.6L735,429.6z M770.6,426.3l-0.3-5c-0.2-4-0.5-7.6-0.9-11.1l-1.7-2.1l-1.8,1.9
		c-0.9,6.1-1.2,12.2-0.9,18.3c0.3,6.1,1.3,12.2,3,18.3l0.4,0.5l0.3-0.5c0.6-5.3,1.1-10.3,1.5-15L770.6,426.3L770.6,426.3z
		 M985.1,1069.4c-5.1-0.4-11.7,1.5-17.6,4.6c-5.9,3.1-11.2,7.4-14,12c3.3,0.9,6.6,1.4,9.7,1.3c3.7-0.1,7.4-1.2,11-3.3
		c3.2-1.9,5.7-4.2,7.6-6.9C983.3,1074.8,984.4,1072.3,985.1,1069.4L985.1,1069.4z M619.2,725.4l-0.6,0.9c-0.3,0.7-0.4,1.5,0,2.6
		c7.8,22.2,16,45.7,24.2,69.3l7.1,20.5c0.1-1.6,0.1-3.1-0.3-4.4c-5.2-15.7-10.4-30.8-15.6-45.9L619.2,725.4L619.2,725.4z
		 M659.8,894.3l-1,3.6c-2.1,7.6-4.2,15.2-6.1,22.6c-0.4,1.6-0.2,3.1,0.3,4.5c0.6,1.4,1.8,2.7,3.2,3.6c1.5,0.9,3.2,1.3,4.8,1.2
		s3.2-0.6,4.6-1.6c1.4-1,2.4-2.3,2.8-3.8c0.5-1.4,0.5-3,0-4.6c-0.9-2.9-1.9-5.7-2.9-8.5L659.8,894.3L659.8,894.3z M396.3,661
		c0.8,5.1,2.3,9.9,4.4,14.2c2.5,5.1,6,9.8,10.4,14.1l4.1-4.1c3.7-3.7,7.4-7.3,10.7-11.2c4.4-5.1,6.6-11.3,6.8-17.4
		c0.2-6.3-1.8-12.7-5.8-18.2l-0.1-0.1c-2.8-3.8-6.8-6.1-11-6.8s-8.7,0.4-12.6,3.2l-0.1,0.1c-2.3,1.6-4.1,4-5.4,6.4l-0.7,1.6
		c1.8-1.5,3.8-2.5,5.8-2.9c3.5-0.7,7.1,0,10.4,2.4l1.4,1.2c2.2,2.1,3.4,5,3.6,7.9s-0.6,5.9-2.5,8.3l-1.4,1.6c-3,2.8-6.3,4-9.9,3.5
		C401.8,664.4,399.1,663.2,396.3,661L396.3,661z M664.9,822l79-287.6l0.2-3.9c-2-7.7-4.2-15.6-6.4-23.5l-35.2,145.3
		c-12.7,52.5-25.5,105-38.2,156.7c-0.7,3-0.8,5.7-0.4,8.4C663.9,819,664.3,820.5,664.9,822L664.9,822z M406.6,789.7
		c4-2.8,7.7-4,11.4-3.6c3.8,0.4,7.4,2.5,10.8,6.4l5,5.4c1.7,1.8,3.4,3.5,5.1,5.1c2.3,2.1,4.9,3.5,7.7,4.1c2.8,0.6,5.9,0.5,9.1-0.5
		c2.8-0.8,5.1-2.1,6.9-4c1-1,1.9-2.3,2.7-3.7c-2.2,0.7-4.5,0.9-6.6,0.5c-2.5-0.5-4.8-1.7-6.5-3.6c-1.8-2.1-2.8-4.4-2.9-6.7
		c-0.2-2.4,0.5-4.8,2-7c1.4-2.1,3.6-3.6,6-4.4c2.4-0.8,5.1-0.9,7.7-0.2c3.7,1,7.1,3.7,9.5,7.2c2.3,3.5,3.8,7.7,3.7,11.9
		c-0.1,6-2.3,11.8-6,16.6c-3.6,4.8-8.8,8.8-14.8,11.1c-3.7,1.4-7.4,2.1-11.1,2.3c-3,0.1-5.9-0.1-8.9-0.6c0.4,5.2-0.1,8.7-1.8,11.4
		c-1.6,2.5-4.3,4.1-8.4,5.4c4.9,2.9,10,5.2,15.3,7.1c6,2.1,12.4,3.5,18.9,4.3l3.5-1.4l4.6-5.2c6-6.7,12-13.4,17.4-20.4
		c5.3-6.9,8.2-14.2,9-21.6c0.7-7.7-0.8-15.7-4.5-23.8c-9.4-20.7-27.4-34.5-45.3-48.3l-1.2-0.9c-8.2,5.1-15.5,10.8-21.7,17.5
		c-6.4,6.9-11.7,14.7-15.7,23.5c-1.3,2.9-1.9,5.8-2,8.9C405.6,784.6,405.9,787.1,406.6,789.7L406.6,789.7z M461.8,656.2
		c0.3,8.2-1.5,15.1-5.3,20.8c-3.8,5.8-9.7,10.5-17.4,14c-4.2,1.9-8.3,4.4-12.5,7l-4.1,2.5l20.9,17.8c6-3.5,11.5-7.4,16.4-11.8
		c5.2-4.6,9.7-9.8,13.6-15.6c6.1-9.2,11.5-18.8,16.8-28.3l0.3-0.5c1-1.9,2.3-3.5,3.8-5c3.2-3.1,7.1-5,11.2-5.6s8.4,0.1,12.2,2.3
		c1.6,0.9,3.2,2.1,4.6,3.6l1.8,2.3c1.6-3,2.7-6.7,3.2-10.7c0.7-4.8,0.6-9.9-0.5-14.5c-0.5-2.3-1.2-4.9-2-7.2
		c-0.8-2.2-1.9-4.3-3.4-5.8c-6-6.1-12.8-10.3-20.2-12.4c-7.1-2-14.9-1.9-23.2,0.3c-1.4,0.4-2.7,0.9-4.1,1.4
		c-1.4,0.6-2.8,1.2-4.2,1.6c-2.7,0.7-5.4,0.8-7.9,0.4c-3.4-0.6-6.6-2.2-9.1-4.4s-4.4-5.1-5.3-8.3c-0.6-2.2-0.8-4.6-0.4-7
		c0.2-1.2,0.5-2.2,0.9-3.3l-16.5,6.3c-3.5,1.3-6.8,3-9.7,5c-3,2-5.7,4.4-8.1,7.1c-2.1,2.3-3.9,4.8-5.4,7.4c-1,1.8-1.8,3.7-2.5,5.7
		c7.4-2.3,14.3-2.8,20.9-1.6c7.5,1.3,14.5,4.8,21.1,10.3c3,2.5,6.4,4.1,10,5c3.7,0.9,7.6,0.9,11.5,0.1c3-0.6,5.9-1.6,8.7-2.5l6.2-2
		L484,633c-0.3,5.8-2.3,10.6-6.3,14.5C474.3,650.9,468.9,653.8,461.8,656.2L461.8,656.2z M514.5,690l-2.8,2.4
		c-3.6,3.1-7.1,6.2-10.7,9c-9.9,7.7-21.2,12.9-32.6,18l-2.3,1c-3.2,1.4-6.3,3.1-9.5,4.8l-2.5,1.4c4.2,3.7,8.5,6.9,13,9.7
		c4.4,2.7,9,5.1,14,7.1c-0.5-3.7-0.2-7.1,1.2-10c1.4-3,3.7-5.6,7.2-7.6c3.3-1.9,6.6-2.7,9.9-2.5c3.4,0.2,6.7,1.4,10,3.5
		c6.7,4.4,13.9,7.7,21.3,10.3c7.5,2.5,15.3,4.4,23.3,5.5c9.8,1.4,19,1.2,27.5-1.2c8.5-2.3,16.3-6.8,23.3-13.6
		c1.3-1.2,2.5-2.7,3.7-4.2c-1.4-0.2-2.5-0.4-3.7-0.7c-1.5-0.5-2.8-1.1-4.1-1.8c-3.3-2.1-5.8-5.1-7-8.5c-1.3-3.5-1.4-7.3-0.2-11.1
		c0.4-1.4,1.1-2.8,1.9-4.1l2.2-3.5c1.9-2.9,3.9-5.8,4.6-8.7c2.3-9,2.9-17.8,1.5-26.2c-1.3-7.9-4.3-15.5-9.2-22.8l-3.2-1.4
		c-1.6,0.1-3.5,0.3-5.3,0.5c-1.6,0.2-3.3,0.4-5.1,0.5c-7.5,0.3-14.7-0.7-21.6-2.5c-6.9-1.8-13.5-4.5-20-7.6l-3.6-1.8
		c1.6,3.8,2.5,7.7,2.9,11.6c0.4,4.5,0,9-1.1,13.6c-1,4.1-1.6,8.2-1.9,12.4s-0.1,8.3,0.5,12.4c0.5,4.1,2.5,7.7,5.3,10.4
		s6.5,4.5,10.7,4.9c2,0.2,4,0.1,6,0.1l4.8-0.1l-0.2,1.9c-0.7,5.2-3.5,10-7.5,13.5s-9.2,5.9-14.8,6.2c-5.9,0.4-11.5-1.7-16.2-5.8
		C520.3,701.5,516.9,696.4,514.5,690z M768.1,499.6l-1.2,4.3c-2.7,9.5-5.4,19-7.8,28.6c-0.3,1.2-0.4,2.5-0.4,3.7
		c0,1.4,0.2,2.8,0.6,4.1c14,50.3,28.7,102.7,43.4,154.9L860.6,901l46.2,164.8c1,3.7,2.4,7.1,4.2,10.4c1.8,3.2,4,6.2,6.7,8.9
		c1.8,1.8,4.3,2.9,6.7,3.1c1.8,0.2,3.7-0.1,5.3-0.9c-2.4-2.6-4.4-5.5-6.2-8.5c-2.1-3.6-3.6-7.4-4.7-11.6c-5.9-22.6-12-45.1-18-67.7
		l-46.3-173.9C825.9,717.1,797.7,608,768.1,499.6L768.1,499.6z M606.3,738.8c-6.2,5.4-12.9,9.9-19.9,13.7
		c-7.7,4.1-15.9,7.3-24.6,9.4c-8.7,2.2-17.5,3.3-26.3,3.4c-7.7,0-15.4-0.7-23.2-2.4c9.1,17.8,11.2,34.2,7.4,49.3
		c-3.7,14.7-13.1,28.2-27,40.7l1.6-0.5c4.3-1.2,8.7-2.5,12.8-4c9.1-3.4,16.4-8.2,21.8-14.5s9-14,10.7-23.3c0.4-2.3,1-4.6,1.6-6.8
		c0.7-2.4,1.4-4.5,2.1-6.7c1.9-5.9,5.8-10.9,10.8-14.4c5.1-3.5,11.3-5.6,17.7-5.5c3.3,0,6.4,1.2,8.7,3.1c2.4,1.9,4,4.7,4.5,7.9
		c0.5,3.3-0.4,6.4-2.3,9c-1.8,2.5-4.6,4.5-8.1,5.4c-3,0.7-6.1,0.2-8.9-1.2c-2.7-1.4-5.1-3.7-6.3-6.5l-0.5-1.4
		c-1.8,1.6-3.3,3.4-4.6,5.3c-1.6,2.4-2.8,5.1-3.3,8c-0.7,3.7-0.9,7.4-1.1,11.2c-0.1,2.8-0.3,5.5-0.6,8.3c-0.2,2.2-0.5,4.4-0.9,6.7
		s-0.9,4.5-1.6,6.7c-2.5,7.3-6.4,12.9-11.7,16.8c-5.3,4-12,6.4-19.7,7.3c3.3,4.8,5.2,9.6,5.3,14.4c0.1,5.5-1.9,10.9-6.4,16.1
		c-3,3.5-6.4,5.8-10.2,7.1c-4,1.4-8.5,1.6-13.1,0.9l-2.4-0.4l1.2-2.1c0.7-1.2,1.4-2.3,2.2-3.5c1.5-2.3,2.9-4.5,3.6-6.8
		c0.5-1.6,0.7-3.3,0.7-4.9c0-3.6-1.3-7.1-3.5-9.9c-2.2-2.8-5.3-5.1-8.9-6.2c-1.7-0.5-3.5-0.8-5.4-0.9l-3.3,1
		c-10.3,8.5-20.5,17.1-30.1,26.3c-9.7,9.2-18.7,19-26.5,29.9c-4.2,5.9-6.7,12.2-7.7,18.6c-1,6.9-0.3,14,1.8,21.1
		c1.2,3.9,3.4,6.8,6.4,9c2.5,1.9,5.6,3.2,8.9,4.2v-0.4c0-2,0-3.9,0.5-5.9c0.2-0.9,0.5-1.7,0.9-2.5c1.6-3.6,4.3-6.2,7.6-7.7
		c3.3-1.5,7.1-1.9,11-0.9c0.9,0.2,1.9,0.6,2.8,1c3.5,1.5,6.7,2.1,10,1.8c3.3-0.2,6.6-1.3,9.9-3c1.2-0.6,2.2-1.6,3.1-2.8
		c1.5-2.2,2.4-5.1,2.6-8.1s-0.3-6.2-1.6-8.7c-0.8-1.6-2-3-3.5-4.1c-1.4-1-3-1.7-4.5-2c-0.9-0.2-1.8-0.2-2.7-0.2l0.4,1.2
		c0.8,2.3,1.5,4.4,1.6,6.7c0.1,2.6-0.9,4.9-2.5,6.7s-4,3.2-6.7,3.9c-2.3,0.6-4.7,0.3-7-0.5c-2.2-0.8-4.3-2.3-5.7-4.2
		c-1.5-2.1-2.3-4.5-2.2-6.9c0.1-2.4,0.9-4.8,2.5-6.8c1.8-2.3,4-3.9,6.4-5.1c1.9-0.9,4.1-1.5,6.4-1.8c-0.4-3.4-0.1-6.6,0.9-9.4
		c1.3-3.4,3.7-6.3,7.6-8.6c2.1-1.3,4.4-2.1,6.7-2.3c2.4-0.3,4.9,0,7.5,0.9l2.6,0.9l-1.9,1.9c-1.8,1.7-3.2,3.5-4.1,5.4
		c-0.8,1.8-1,3.7-0.5,5.8c0.3,1.3,0.8,2.5,1.4,3.7c0.5,0.9,1.1,1.9,1.8,2.6c2.2,2.2,4,4.5,5.5,6.9c4.2,6.8,5.9,14.3,5.1,21.6
		c-0.9,7.3-4.2,14.3-9.9,20c-2.1,2.1-4.5,4-7.1,5.7c-4.5,2.8-9.2,4.8-14.1,6.3c-4.1,1.2-8.5,1.9-13,2.2l0.3,0.8
		c0.9,2.2,1.8,4.2,2.3,6.5c1.3,5.7,1,10.8-0.7,15.7c-1.6,4.8-4.5,9.2-8.4,13.4l-13.9,15c-4.8,5.1-9.3,10.2-13.7,15.1
		c-3,3.4-4.9,7.1-5.9,11.1s-1.2,8.3-0.9,12.7l0.3,4.1l-2.3,2.1l-1.1-1.2c-3.5-3.6-5.9-7.6-7.2-11.8c-1.2-4-1.3-8.3-0.1-12.9
		c1.5-5.6,3.8-10.9,6.7-15.9c2.8-4.9,6.2-9.6,9.9-14.1c5.1-6.2,7.8-14.5,8.1-22.9c0.2-8.3-2.2-16.6-7.1-23
		c-3.4-4.5-6.3-9.2-8.7-14.2c-2.3-5-4.1-10.2-5.4-15.6c-1.3-5.5-1.4-11-0.7-16.3s2.3-10.5,4.4-15.6c3.2-7.7,7.4-14.9,12.3-21.5
		s10.5-12.7,16.5-18.5c4.1-3.9,8.4-7.6,12.8-11.4l8.2-7.1l-3.7-1.1c-5-1.4-9.9-2.9-14.5-5s-8.8-4.7-13.2-7.4l-3.6-2.2
		c-0.9,5.7-2.5,11.1-5.4,15.9c-3.2,5.6-7.9,10.6-14.3,14.7l-3.5,2.2l2.4-9.4c0.9-3.5,1.8-6.9,2.4-10.3c1.3-7.6,1.5-15.2,0.6-22.6
		c-0.9-7.3-3-14.5-6.1-21.5c-5.3-11.7-6.7-24.4-4.4-36.4c2.3-11.9,8.2-23.1,17.5-32.1c6.7-6.4,13.5-12.3,20.3-18.2l8.5-7.4l-20-17.1
		c-5.4,3.2-11.6,10.7-16.9,19.8c-5.7,9.7-10.3,21.1-12,31l-1.2,6.9l-2.1-6.7c-1-3.3-1.2-8.3-0.8-13.7c0.5-5.5,1.6-11.4,3.2-16.4
		c1.8-5.6,4.5-10.8,7.6-15.7c3.1-4.8,6.6-9.4,10.4-13.9c0.6-0.7,0.9-1.2,0.9-1.6c0-0.3-0.2-0.8-0.9-1.5c-5.1-5.5-9.5-11.5-13.1-17.9
		c-3.7-6.3-6.6-13-8.8-20.1c-1.9-6.2-2.3-12.2-1.4-18.1c0.9-5.8,3-11.5,6-17c6-10.9,13.6-20.2,22.7-27.9c9.2-7.7,19.9-13.7,32-18.1
		c4.1-1.5,8.1-3.3,11.5-5.6s6.4-5.1,8.9-8.6c1.9-2.8,2.7-5.7,2.5-8.7c-0.3-3.1-1.7-6.4-4.2-9.5c-2-2.5-4.5-4.3-7.1-5.1
		c-2.5-0.8-5.3-0.9-8.2,0l0.5,0.3c2.7,1.8,4.4,4.3,5.2,6.9c0.7,2.7,0.4,5.7-1.1,8.3c-1.4,2.6-3.9,4.6-6.6,5.6s-5.8,1.2-8.7,0.2
		c-2.9-1-5.1-3-6.5-5.5s-1.8-5.4-1.2-8.4c0.6-2.7,1.6-5.2,3-7.4c2.6-4,6.4-7.1,10.7-8.8c4.3-1.7,9.2-2.2,14-1.1
		c2.7,0.6,5.3,1.7,7.8,3.3c2.1,1.3,3.9,2.8,5.9,4.4l1.8,1.4c1.5-1.4,3.2-2.7,5-3.6c2.3-1.2,4.9-1.9,7.8-1.7c1.5,0.1,3,0.4,4.4,0.8
		c1.4,0.4,2.8,0.9,4.2,1.5l3.2,1.3l-3,1.7c-3.9,2.3-6.6,5.1-8.7,8.4c-2.1,3.3-3.5,7.1-4.7,11.1c-1.4,4.5-3.5,8.6-6.2,12.5
		c-1.9,2.7-4.1,5.3-6.6,7.8c6.7,0.1,13.3,0.9,19.5,2.3c7.6,1.8,14.8,4.6,21.6,8.5c6.8,3.8,13,8.4,19.3,13c3,2.2,6,4.4,9,6.6l2.1,1.4
		c9.3,6.5,18.6,13,30.1,15.4c3.9,0.8,7.7,1.2,11.6,1.2c3.1,0,6.3-0.2,9.6-0.7l-0.5-0.7c-3-3.7-5.5-7.7-7.5-11.8
		c-2-4.2-3.5-8.7-4.1-13.4c-0.7-4.9,0.1-9.4,1.9-13.3c2-4.2,5.3-8,9.5-11.1c3.8-2.8,7.8-4.6,12.1-5.1c4.1-0.5,8.4,0.1,12.9,1.9
		c2.8,1.2,4.8,3,6,5.2c1.3,2.3,1.6,4.9,1,7.5c-0.7,2.8-2.3,5.1-4.4,6.6c-2.1,1.6-4.7,2.3-7.5,2.2c-2.9-0.2-5.4-1.3-7.2-3.1
		s-3.1-4.1-3.6-7l-1-2.3l-3,1.1c-2.8,2.3-4.8,6-5.6,10.1s-0.4,8.5,1.6,12.2c2.6,5.1,6.3,9.9,9.9,14.6l1.2,1.5h3.3
		c7.6-3.7,13.8-9.7,17.8-16.8c4.1-7.3,6.2-15.9,5.4-24.4c-0.8-8.7-4.1-15.7-8.9-21.7c-4.9-6-11.5-11-18.7-15.4
		c-1.3-0.8-2.8-1.5-4.3-2.2l-3.3-1.5l-0.9,0.9c-3.1,4.1-7,6.9-11.4,8.1c-4.3,1.3-9,1.1-13.8-0.8c-4.3-1.7-8.5-2.4-12.6-2.3
		c-4.1,0.1-8.3,1.2-12.4,2.8c-0.7,0.3-1.5,0.7-2.2,1c-3.8,2.2-6.7,5.7-8.3,9.5s-1.8,8-0.4,11.5l0.7,1.5c0.9,1.7,2.1,3.1,3.6,4.2
		c0.9,0.7,1.9,1.3,3,1.8v-0.3c-0.2-3.2,0.7-6.2,2.5-8.5s4.5-4,7.8-4.7c3-0.7,6,0,8.6,1.4c2.5,1.5,4.6,3.9,5.7,6.8
		c1,2.8,0.8,5.8-0.3,8.4c-1.2,2.5-3.2,4.8-6,6.2c-1.8,0.9-3.7,1.6-5.5,2.1c-5.9,1.4-11.9,0.7-17.1-1.8c-5.2-2.5-9.6-6.7-12.4-12.2
		c-0.9-1.8-1.7-3.9-2.2-6c-2.1-8.5,0-17,4.6-24c4.8-7.5,12.6-13.4,21.2-16l2.2-0.6c-9.8-4.1-17.7-11-22.8-19.4
		c-5.2-8.5-7.7-18.7-6.6-29.3c1-10,5.5-19.4,12.4-26.8c6.8-7.4,16-12.8,26.2-15l3.7-0.7l3.7-0.5c5.3-0.6,9.3-2.3,12.1-5.1
		c2.7-2.8,4.3-6.7,4.6-11.9c0.2-1.2,0.5-2.4,0.8-3.5l2,1.2c1.8,1,3.2,2.3,4.2,3.6c1.7,2.2,2.5,4.7,2.5,7.4c0,2.6-0.9,5.4-2.5,8.2
		c-1.6,2.7-4,5.4-7.1,8.1l0.6,0.9c1.1,0.9,2.1,1.8,2.9,2.8c3.2,3.9,4.6,9,4.3,14.2c-0.3,5.1-2.2,10.4-5.6,14.8
		c-1.3,1.7-2.8,3.2-4.5,4.6c-2.5,2.1-5.3,3.6-8.1,4.6c-2.9,1-6,1.6-9.2,1.7c-3,0.1-5.7-0.7-7.8-2.2s-3.6-3.8-4.1-6.4s0-5.3,1.4-7.4
		c1.3-2.1,3.5-3.9,6.1-4.7c2.7-0.9,5.3-0.7,7.7,0.2c2.1,0.9,4,2.6,5.5,4.9c0.4-0.8,0.6-1.6,0.7-2.4c0-1.2-0.4-2.4-1.4-3.4l-0.3-0.3
		c-3-2.6-5.1-5.4-5.9-8.6c-0.7-2.5-0.5-5.3,0.5-8.3c-3.6,0.1-6.9,0.7-9.9,1.8c-3.7,1.4-6.9,3.5-9.9,6.3c-4.6,4.6-7.8,9.7-9.5,15.2
		c-1.7,5.4-2,11.3-0.8,17.5c0.6,3.1,1.9,6,3.7,8.6c1.8,2.7,4.1,5.1,6.5,7.4c4.4,4.1,9.2,7.2,14.5,9.3c4.8,1.9,10.2,3,15.9,3.2
		c0.4-2.3,1.1-4.6,2.1-6.5c1.3-2.5,3.2-4.6,6-6.1c2.1-1.2,4.4-1.8,6.7-2.5l5.8-1.8l-1.5,6.9c-0.6,2.4-1.1,4.6-1.3,6.7
		c-0.2,3,0.4,5.6,1.7,7.9c1.4,2.4,3.4,4.5,5.9,6.5l5.5,4.2c7.5,5.8,15.1,11.7,21.2,18.7c6.9,8,10.6,16.6,11.5,25.6
		c0.9,9.4-1.4,19.1-6.4,28.8c-2.3,4.6-4.5,7.9-8,11.4c-3.2,3.2-7.5,6.6-14.2,11.5l0.9,1.1c1.4,1.6,2.8,3.3,4.2,5
		c8.4,10.7,14.2,22,17,34c2.9,12,2.8,24.6-0.5,37.8c-0.2,0.8-0.3,1.6-0.3,2.5c0,0.8,0.1,1.6,0.4,2.3c9.1,26.5,18.6,53.5,28,80.6
		l0.8,2.3l50.5-215.8c7.6-32.6,15.3-65.2,22.7-97.4c0.2-1.2,0.4-2.5,0.3-3.8c0-1.4-0.2-2.8-0.6-4.1c-1.5-5.9-3-11.6-4.6-17.4
		c-2.2-8-4.3-15.9-6.2-24.1c-1.3-5.7-1.6-11.3-1.2-16.9c0.4-5.6,1.5-11.1,3-16.6c0.8-2.9,2.3-5.4,4.3-7.1c2.1-1.8,4.6-3,7.3-3.1
		c2.3-0.1,4.7,0.7,6.8,2.3c2.1,1.5,4,3.7,5.3,6.2c3.4,6.6,3.8,13.6,4.2,20.5l0.2,3.3c0.7,9.5,0.7,19,0,28.4s-2.1,18.8-4,28.2
		c-0.2,1-0.3,2.2-0.2,3.3c0,1.2,0.2,2.4,0.5,3.6c1.6,6.3,3.5,12.6,5.2,18.8l1.6,5.5l3-10.8c2.2-8.1,4.5-16.3,6.6-24.3
		c0.2-0.7,0.3-1.5,0.3-2.3c0-0.7-0.1-1.6-0.3-2.3l-1.1-4.2c-3.4-12.7-6.7-25.5-7.1-38.9c-0.1-4.8-0.2-9.7,0.3-14.5s1.6-9.7,3.7-14.3
		c1.1-2.5,2.6-4.7,4.5-6.2c1.8-1.4,3.9-2.3,6.5-2.3c2.6-0.1,4.8,0.7,6.7,2.1c2,1.5,3.6,3.6,4.7,6.1c3.5,7.8,3.8,15.9,4.2,23.9
		l0.1,2.2c0.5,8.9,0.1,17.7-0.8,26.4c-1,8.7-2.6,17.4-4.9,26c-0.2,0.8-0.3,1.7-0.3,2.6s0.1,1.8,0.4,2.6L935,1067.3
		c0.7,2.5,1.6,4.6,2.9,6.6c1.1,1.7,2.4,3.2,3.8,4.5l4.1-3.9c3.9-3.7,7.6-7.4,11.9-10.5c4.1-3.1,8.7-5.3,13.5-6.7
		c4.8-1.4,9.8-2.1,15-2.3c1.9-0.1,3.6,0.1,5.2,0.6c2.6,0.7,4.8,2.2,6.3,4.1s2.4,4.3,2.5,7c0,1.5-0.1,3.1-0.6,4.8
		c-2.7,9.3-7.8,16.8-14.5,22c-6.7,5.1-15,7.8-24.3,7.5c-3.7-0.1-7.3-1.2-10.8-2.2c-1.7-0.5-3.5-1-5.3-1.4l-3.4,0.2
		c-6.1,3.7-12.4,5-18.3,4c-6-1-11.7-4.4-16.5-10c-3.9-4.6-7.1-9.5-9.8-14.6s-4.8-10.6-6.3-16.3c-9.2-33.5-18.6-67.7-28-101.9
		l-51.8-188.1l-48.3-175l-10.1-37l-3.5,12.5l-37.4,136.1c-12.2,44.3-24.3,88.6-37.1,135.4c-0.2,0.8-0.3,1.7-0.2,2.6
		c0,1.1,0.2,2.3,0.6,3.3c0.8,2.8,1.8,5.7,2.8,8.5c0.8,2.3,1.6,4.6,2.4,7c1.2,3.7,1.3,7.3,0.4,10.6c-0.9,3.3-2.8,6.4-5.7,9.2
		c-1.2,1.1-0.7,2.2-0.3,3.5l2.9,8.1c2.2,6.2,4.4,12.4,6.5,18.7c1.9,5.6,1.2,11.5-1.4,16.4c-2.5,4.9-7.1,9-12.9,10.9l-0.2,0.1
		c-5.8,1.9-12,1.5-17.2-0.7c-5.3-2.3-9.5-6.4-11.5-12l-0.1-0.2c-0.7-2.2-1-4.6-1-7.1c0-2.8,0.4-5.7,0.9-8.3
		c1.1-5.3,2.6-10.6,4.2-15.8c0.9-3,1.8-6,2.5-9l-0.8-3.1c-3.4-2.8-5.6-6-6.7-9.5c-1.2-3.6-1.3-7.6-0.3-11.8c0.7-3.1,1.6-6,2.5-8.9
		c0.7-2.1,1.3-4.3,1.8-6.3l-0.1-3.7l-36.4-106.1L606.3,738.8L606.3,738.8z"/>
</g>
</svg>
