<?xml version="1.0" encoding="iso-8859-1"?>
<!-- Generator: Adobe Illustrator 19.0.0, SVG Export Plug-In . SVG Version: 6.00 Build 0)  -->
<svg version="1.1" id="Capa_1" xmlns="http://www.w3.org/2000/svg" xmlns:xlink="http://www.w3.org/1999/xlink" x="0px" y="0px"
	 viewBox="0 0 464 464" style="enable-background:new 0 0 464 464;" xml:space="preserve">
<path style="fill:#744630;" d="M48,144h368c26.51,0,48,21.49,48,48v224c0,26.51-21.49,48-48,48H48c-26.51,0-48-21.49-48-48V192
	C0,165.49,21.49,144,48,144z"/>
<path style="fill:#5B3726;" d="M2.792,432C9.567,451.162,27.676,463.98,48,464h368c20.324-0.02,38.433-12.838,45.208-32H2.792z"/>
<path style="fill:#744630;" d="M328,48H136c-17.673,0-32,14.327-32,32v64h32V96c0-4.418,3.582-8,8-8h176c4.418,0,8,3.582,8,8v48h32
	V80C360,62.327,345.673,48,328,48z"/>
<path style="fill:#FBB540;" d="M56,144h48v320H56V144z"/>
<g>
	<path style="fill:#EA9D2D;" d="M56,368h48v24H56V368z"/>
	<path style="fill:#EA9D2D;" d="M56,312h48v24H56V312z"/>
</g>
<path style="fill:#FBB540;" d="M360,144h48v320h-48V144z"/>
<g>
	<path style="fill:#EA9D2D;" d="M360,368h48v24h-48V368z"/>
	<path style="fill:#EA9D2D;" d="M360,312h48v24h-48V312z"/>
</g>
<g>
	<path style="fill:#D68F29;" d="M112,376H48v-64h64V376z M64,360h32v-32H64V360z"/>
	<path style="fill:#D68F29;" d="M416,376h-64v-64h64V376z M368,360h32v-32h-32V360z"/>
</g>
<path style="fill:#B9B9B9;" d="M184,144h16v40h-16V144z"/>
<path style="fill:#C7463B;" d="M232,288h80v56h-80V288z"/>
<path style="fill:#DC4D41;" d="M184,384l-32,48h64L184,384z"/>
<g>
	<path style="fill:#D68F29;" d="M264,368h16v16h-16V368z"/>
	<path style="fill:#D68F29;" d="M296,368h16v16h-16V368z"/>
	<path style="fill:#D68F29;" d="M232,368h16v16h-16V368z"/>
</g>
<path style="fill:#D9D9D9;" d="M192,176l-24,24v48h48v-48L192,176z"/>
<g>
	<path style="fill:#533222;" d="M104,120h32v24h-32V120z"/>
	<path style="fill:#533222;" d="M328,120h32v24h-32V120z"/>
	<path style="fill:#533222;" d="M232,48h80v24h-80V48z"/>
</g>
<path style="fill:#FDC9A6;" d="M216,0v24l-32,24v48c0,8.837,7.163,16,16,16h64c8.837,0,16-7.163,16-16V48h32V36.496
	c0.003-7.344-4.995-13.747-12.12-15.528L280,16V0L216,0z"/>
<g>
	<path style="fill:#EAB28B;" d="M208,80h16v24h-16V80z"/>
	<path style="fill:#EAB28B;" d="M240,80h16v24h-16V80z"/>
</g>
<g>
</g>
<g>
</g>
<g>
</g>
<g>
</g>
<g>
</g>
<g>
</g>
<g>
</g>
<g>
</g>
<g>
</g>
<g>
</g>
<g>
</g>
<g>
</g>
<g>
</g>
<g>
</g>
<g>
</g>
</svg>
