<?xml version="1.0" encoding="UTF-8"?>
<!DOCTYPE svg PUBLIC "-//W3C//DTD SVG 1.1//EN" "http://www.w3.org/Graphics/SVG/1.1/DTD/svg11.dtd">
<!-- Creator: CorelDRAW 2018 (64-Bit) -->
<svg xmlns="http://www.w3.org/2000/svg" xml:space="preserve" width="1772px" height="1181px" version="1.1" style="shape-rendering:geometricPrecision; text-rendering:geometricPrecision; image-rendering:optimizeQuality; fill-rule:evenodd; clip-rule:evenodd"
viewBox="0 0 1772 1181.33"
 xmlns:xlink="http://www.w3.org/1999/xlink">
 <defs>
  <style type="text/css">
   <![CDATA[
    .fil2 {fill:#EB001B}
    .fil3 {fill:#F79E1B}
    .fil1 {fill:#FF5F00}
    .fil0 {fill:white}
   ]]>
  </style>
 </defs>
 <g id="Слой_x0020_1">
  <metadata id="CorelCorpID_0Corel-Layer"/>
  <g id="_2828735834752">
   <rect class="fil0" width="1772" height="1181.33" rx="73.21" ry="118.13"/>
   <g>
    <rect id="rect887" class="fil1" x="710.34" y="303.61" width="351.48" height="574.06"/>
    <path id="path889" class="fil2" d="M746.54 590.69c0,-0.11 0,-0.2 0,-0.29 0,-111.86 51.48,-217.62 139.45,-286.68 -64.3,-50.5 -143.81,-78.05 -225.59,-78.05 -201.59,0 -365.07,163.48 -365.07,365.07 0,201.58 163.48,365.06 365.07,365.06 81.78,0 161.29,-27.54 225.56,-78.04 -87.94,-69.06 -139.42,-174.82 -139.42,-286.68 0,-0.09 0,-0.32 0,-0.41l0 0.02z"/>
    <path id="path891" class="fil3" d="M1441.78 816.93l0 -11.77 5.07 0 0 -2.43 -12.07 0 0 2.43 4.77 0 0 11.77 2.23 0zm23.43 0l0 -14.2 -3.65 0 -4.26 10.14 -4.26 -10.14 -3.65 0 0 14.2 2.63 0 0 -10.75 3.96 9.23 2.74 0 3.95 -9.23 0 10.75 2.54 0z"/>
    <path id="path893" class="fil3" d="M1476.67 590.69c0,201.57 -163.48,365.05 -365.07,365.05 -81.83,0 -161.29,-27.54 -225.6,-78.08 87.98,-69.17 139.46,-175.02 139.46,-287.02 0,-112 -51.48,-217.86 -139.5,-287.03 64.35,-50.54 143.81,-78.08 225.64,-78.08 201.59,0 365.07,163.48 365.07,365.06l0 0.1z"/>
   </g>
  </g>
 </g>
</svg>
