<svg width="1778" height="1181" viewBox="0 0 1778 1181" fill="none" xmlns="http://www.w3.org/2000/svg">
<rect width="1778" height="1181" rx="100" fill="white"/>
<path fill-rule="evenodd" clip-rule="evenodd" d="M251.687 377.073C265.666 376.989 307.208 373.25 324.805 432.595C336.658 472.57 355.54 538.051 381.45 629.037H392.002C419.788 533.113 438.876 467.632 449.265 432.595C467.045 372.632 511.495 377.074 529.275 377.074L666.452 377.074V803.473H526.637V552.189H517.262L439.322 803.473H334.13L256.19 552.003H246.814V803.473H107V377.074L251.687 377.073ZM867.223 377.074V628.545H878.376L973.183 421.762C991.587 380.612 1030.81 377.074 1030.81 377.074H1166.11V803.474H1023.37V552.003H1012.22L919.273 758.786C900.87 799.75 859.787 803.474 859.787 803.474H724.488V377.074H867.223ZM1659.46 579.702C1639.55 636.08 1577.03 676.456 1507.8 676.456H1358.12V803.474H1222.39V579.702H1659.46Z" fill="#0F754E"/>
<path fill-rule="evenodd" clip-rule="evenodd" d="M1514.35 377.074H1215.27C1222.39 472.005 1304.2 553.272 1388.89 553.272H1668.89C1685.05 474.373 1629.43 377.074 1514.35 377.074Z" fill="url(#paint0_linear_1_13)"/>
<defs>
<linearGradient id="paint0_linear_1_13" x1="1671.64" y1="487.91" x2="1215.27" y2="487.91" gradientUnits="userSpaceOnUse">
<stop stop-color="#1F5CD7"/>
<stop offset="1" stop-color="#02AEFF"/>
</linearGradient>
</defs>
</svg>
