<?xml version="1.0" encoding="UTF-8"?>
<!DOCTYPE svg PUBLIC "-//W3C//DTD SVG 1.1//EN" "http://www.w3.org/Graphics/SVG/1.1/DTD/svg11.dtd">
<!-- Creator: CorelDRAW 2018 (64-Bit) -->
<svg xmlns="http://www.w3.org/2000/svg" xml:space="preserve" width="1772px" height="1181px" version="1.1" style="shape-rendering:geometricPrecision; text-rendering:geometricPrecision; image-rendering:optimizeQuality; fill-rule:evenodd; clip-rule:evenodd"
viewBox="0 0 1772 1181.33"
 xmlns:xlink="http://www.w3.org/1999/xlink">
 <defs>
  <style type="text/css">
   <![CDATA[
    .fil2 {fill:black}
    .fil1 {fill:#FF4800}
    .fil0 {fill:white}
   ]]>
  </style>
 </defs>
 <g id="Слой_x0020_1">
  <metadata id="CorelCorpID_0Corel-Layer"/>
  <g id="_2828733861184">
   <rect class="fil0" width="1772" height="1181.33" rx="73.21" ry="118.13"/>
   <g>
    <path class="fil1" d="M509.9 379.7c5.7,43.76 25.12,136.98 33.92,176.33 2.33,11.14 4.92,20.72 7.25,24.6 12.17,20.98 22.01,-6.99 22.01,-6.99 38.06,-113.67 -22.01,-186.95 -41.17,-206.63 -3.37,-3.62 -9.32,-8.03 -14.76,-9.58 -7.77,-2.33 -9.06,2.07 -9.06,5.7 0.26,3.62 1.55,13.72 1.81,16.57zm530.04 -35.47c7.5,5.43 33.66,32.88 0,37.02 -48.17,5.7 -139.83,9.07 -291.82,136.2 -57.48,48.16 -186.43,177.89 -255.57,339.21 -0.78,2.07 -3.1,3.1 -5.18,2.59 -6.21,-1.82 -17.35,-8.55 -11.65,-34.44 7.77,-34.96 77.68,-216.99 262.56,-377.53 60.33,-52.3 204.3,-175.56 301.66,-103.05z"/>
    <path class="fil2" d="M188.82 603.16c7.51,1.55 13.99,2.33 23.82,2.33 38.07,0 63.96,-24.6 63.96,-55.67 0,-27.96 -19.94,-38.06 -45.57,-38.06 -11.39,0 -19.94,0.77 -25.38,2.33l-16.83 89.07zm-21.49 -121.7c16.05,-3.88 39.88,-6.21 63.18,-6.21 24.6,0 50.23,5.17 67.32,18.64 15.28,11.65 24.08,28.74 24.08,52.3 0,31.08 -14.76,56.45 -33.4,71.21 -20.97,16.83 -51.01,24.86 -82.34,24.86 -9.32,0 -17.61,-1.3 -24.6,-2.07l-18.9 99.69 -44.54 0 49.2 -258.42z"/>
    <path class="fil2" d="M442.32 582.96c-4.66,-1.29 -10.62,-2.07 -18.65,-2.07 -41.68,0 -74.31,47.13 -74.31,90.37 0,19.94 7.51,36.25 27.19,36.25 21.49,0 47.12,-26.41 56.19,-74.83l9.58 -49.72zm-18.13 156.92c0,-11.4 1.56,-26.41 3.11,-42.47l-0.78 0c-18.64,34.7 -44.02,46.87 -68.1,46.87 -33.92,0 -56.19,-26.41 -56.19,-64.74 0,-64.73 45.32,-133.61 133.61,-133.61 20.72,0 42.99,3.89 57.75,8.55l-19.94 98.91c-5.44,27.97 -8.55,63.96 -7.77,86.49l-41.69 0z"/>
    <g>
     <path class="fil2" d="M751.23 664.79c0,26.15 13.72,44.53 37.02,44.53 33.92,0 56.45,-46.86 56.45,-84.67 0,-19.42 -9.06,-43.76 -36.25,-43.76 -35.99,0 -57.22,48.42 -57.22,83.9l0 0zm140.34 -40.66c0,64.74 -44.8,119.89 -109.53,119.89 -47.9,0 -77.42,-33.14 -77.42,-78.46 0,-64.21 44.79,-119.88 109.53,-119.88 51.01,0.25 77.42,36.76 77.42,78.45z"/>
    </g>
    <path class="fil2" d="M900.11 739.88l24.6 -131.02c4.66,-22.53 7.51,-42.47 9.84,-58.78l40.39 0 -4.4 33.92 0.78 0c17.61,-25.38 41.69,-38.07 68.1,-38.07 27.19,0 48.42,16.32 48.42,52.31 0,8.54 -1.56,21.75 -3.37,31.07l-20.71 110.57 -45.57 0 20.19 -107.2c1.3,-6.99 2.33,-15.28 2.33,-22.53 0,-16.05 -5.95,-27.19 -23.82,-27.19 -20.71,0 -47.12,24.86 -55.41,69.4l-16.31 87.78 -45.06 -0.01 0 -0.25z"/>
    <g>
     <path class="fil2" d="M1208.76 579.86c-28.48,0 -47.13,25.37 -52.56,48.42 46.86,0.25 76.9,-5.96 76.9,-28.75 -0.26,-12.42 -9.84,-19.67 -24.34,-19.67l0 0zm43.24 149.14c-18.64,9.84 -44.02,15.28 -67.06,15.28 -52.56,0 -77.94,-32.37 -77.94,-78.72 0,-57.22 41.95,-119.63 107.46,-119.63 37.28,0 61.1,21.5 61.1,53.35 0,48.68 -51.01,64.21 -124.28,62.66 -0.78,6.73 0.77,19.42 5.18,26.93 7.5,12.94 20.97,19.42 38.84,19.42 21.49,0 38.58,-5.44 52.3,-12.43l4.4 33.14z"/>
    </g>
    <g>
     <path class="fil2" d="M1385.09 579.86c-28.48,0 -47.12,25.37 -52.56,48.42 46.87,0.25 76.9,-5.96 76.9,-28.75 0,-12.42 -9.83,-19.67 -24.34,-19.67l0 0zm43.5 149.14c-18.64,9.84 -44.01,15.28 -67.06,15.28 -52.56,0 -77.94,-32.37 -77.94,-78.72 0,-57.22 41.95,-119.63 107.46,-119.63 37.29,0 61.11,21.5 61.11,53.35 0,48.68 -51.01,64.21 -124.29,62.66 -0.78,6.73 0.78,19.42 5.18,26.93 7.51,12.94 20.97,19.42 38.84,19.42 21.49,0 38.58,-5.44 52.3,-12.43l4.4 33.14z"/>
    </g>
    <path class="fil2" d="M1455.01 739.88l22.26 -117.04c5.18,-26.93 7.77,-56.19 9.58,-72.76l39.36 0c-1.03,12.94 -2.33,26.15 -4.4,39.87l1.04 0c12.94,-25.37 33.4,-44.02 59.29,-44.02 3.63,0 6.99,0.52 10.1,0.52l-9.06 44.54c-2.33,-0.52 -5.44,-0.52 -8.55,-0.52 -32.36,0 -53.08,32.63 -60.33,73.28l-14.5 76.38 -44.79 0 0 -0.25z"/>
    <path class="fil2" d="M1626.94 567.43l3.36 0c3.37,0 5.7,-1.82 5.7,-4.67 0,-3.1 -2.33,-4.66 -5.7,-4.66 -1.55,0 -2.59,0 -3.1,0.26l0 9.07 -0.26 0zm-3.11 -11.4c1.55,-0.26 3.88,-0.51 6.22,-0.51 3.36,0 5.69,0.77 7.24,2.07 1.3,1.03 2.08,2.85 2.08,4.92 0,3.36 -2.08,5.44 -4.66,6.47l0 0c1.81,0.78 3.1,2.59 3.62,5.18 0.78,3.37 1.3,5.95 1.81,6.99l-3.36 0c-0.52,-0.78 -1.04,-2.85 -1.56,-5.96 -0.77,-3.36 -2.07,-4.66 -5.17,-4.92l-3.11 0 0 10.88 -3.37 0 0 -25.12 0.26 0z"/>
    <g>
     <path class="fil2" d="M1631.34 545.93c-12.43,0 -22.53,10.1 -22.53,22.53 0,12.43 10.1,22.53 22.53,22.53 12.43,0 22.53,-10.1 22.53,-22.53 -0.26,-12.69 -10.36,-22.53 -22.53,-22.53l0 0zm0 3.37c10.36,0 18.9,8.55 18.9,18.9 0,10.62 -8.54,18.9 -18.9,18.9 -10.62,0 -18.9,-8.54 -18.9,-18.9 -0.26,-10.35 8.28,-18.9 18.9,-18.9z"/>
    </g>
   </g>
  </g>
 </g>
</svg>
