<?xml version="1.0" encoding="UTF-8"?>
<!DOCTYPE svg PUBLIC "-//W3C//DTD SVG 1.1//EN" "http://www.w3.org/Graphics/SVG/1.1/DTD/svg11.dtd">
<!-- Creator: CorelDRAW 2018 (64-Bit) -->
<svg xmlns="http://www.w3.org/2000/svg" xml:space="preserve" width="1772px" height="1181px" version="1.1" style="shape-rendering:geometricPrecision; text-rendering:geometricPrecision; image-rendering:optimizeQuality; fill-rule:evenodd; clip-rule:evenodd"
viewBox="0 0 1772 1181.33"
 xmlns:xlink="http://www.w3.org/1999/xlink">
 <defs>
  <style type="text/css">
   <![CDATA[
    .fil0 {fill:white}
    .fil1 {fill:#283B82;fill-rule:nonzero}
    .fil2 {fill:#469BDB;fill-rule:nonzero}
   ]]>
  </style>
 </defs>
 <g id="Слой_x0020_1">
  <metadata id="CorelCorpID_0Corel-Layer"/>
  <g id="_2828735824768">
   <rect class="fil0" width="1772" height="1181.33" rx="73.21" ry="118.13"/>
   <g>
    <g>
     <path id="path14" class="fil1" d="M302.42 386.06l-119.45 0c-8.17,0 -15.12,5.94 -16.4,14.02l-48.31 306.3c-0.96,6.04 3.72,11.49 9.85,11.49l57.03 0c8.17,0 15.12,-5.93 16.4,-14.02l13.03 -82.62c1.26,-8.08 8.22,-14.02 16.38,-14.02l37.82 0c78.68,0 124.09,-38.08 135.95,-113.54 5.35,-33.01 0.23,-58.94 -15.23,-77.11 -16.97,-19.95 -47.09,-30.5 -87.07,-30.5l0 0zm13.78 111.88c-6.53,42.86 -39.28,42.86 -70.94,42.86l-18.03 0 12.65 -80.05c0.75,-4.84 4.94,-8.4 9.83,-8.4l8.26 0c21.57,0 41.92,0 52.43,12.29 6.28,7.34 8.2,18.24 5.81,33.3l-0.01 0zm0 0l0 0 0 0z"/>
    </g>
    <path id="path16" class="fil1" d="M659.48 496.56l-57.2 0c-4.87,0 -9.08,3.56 -9.83,8.4l-2.53 16 -4 -5.8c-12.39,-17.97 -40,-23.98 -67.56,-23.98 -63.21,0 -117.2,47.87 -127.71,115.03 -5.47,33.5 2.3,65.54 21.31,87.87 17.43,20.54 42.37,29.1 72.05,29.1 50.93,0 79.17,-32.74 79.17,-32.74l-2.55 15.89c-0.96,6.08 3.72,11.53 9.82,11.53l51.52 0c8.19,0 15.11,-5.94 16.4,-14.03l30.91 -195.78c0.98,-6.02 -3.68,-11.49 -9.8,-11.49l0 0zm-79.73 111.33c-5.52,32.68 -31.46,54.62 -64.54,54.62 -16.61,0 -29.88,-5.33 -38.41,-15.43 -8.45,-10.02 -11.66,-24.29 -8.97,-40.19 5.15,-32.4 31.53,-55.05 64.1,-55.05 16.24,0 29.45,5.4 38.14,15.58 8.72,10.29 12.17,24.64 9.68,40.47z"/>
    <g>
     <path id="path18" class="fil1" d="M964.13 496.56l-57.48 0c-5.49,0 -10.64,2.72 -13.75,7.28l-79.28 116.78 -33.6 -112.22c-2.12,-7.02 -8.6,-11.84 -15.93,-11.84l-56.49 0c-6.86,0 -11.63,6.7 -9.44,13.17l63.31 185.8 -59.53 84.04c-4.68,6.61 0.04,15.72 8.13,15.72l57.41 0c5.45,0 10.55,-2.66 13.64,-7.13l191.18 -275.97c4.58,-6.6 -0.12,-15.63 -8.17,-15.63l0 0zm0 0l0 0 0 0z"/>
    </g>
    <g>
     <path id="path20" class="fil2" d="M1154.44 386.06l-119.47 0c-8.16,0 -15.11,5.94 -16.39,14.02l-48.3 306.3c-0.96,6.04 3.72,11.49 9.81,11.49l61.31 0c5.69,0 10.57,-4.15 11.46,-9.81l13.71 -86.83c1.25,-8.08 8.22,-14.02 16.38,-14.02l37.8 0c78.7,0 124.09,-38.08 135.97,-113.54 5.36,-33.01 0.21,-58.94 -15.25,-77.11 -16.96,-19.95 -47.05,-30.5 -87.03,-30.5l0 0zm13.78 111.88c-6.52,42.86 -39.26,42.86 -70.95,42.86l-18 0 12.66 -80.05c0.75,-4.84 4.9,-8.4 9.81,-8.4l8.27 0c21.55,0 41.92,0 52.43,12.29 6.27,7.34 8.17,18.24 5.78,33.3l0 0zm0 0l0 0 0 0z"/>
    </g>
    <g>
     <path id="path22" class="fil2" d="M1511.48 496.56l-57.16 0c-4.91,0 -9.09,3.56 -9.82,8.4l-2.53 16 -4.02 -5.8c-12.38,-17.97 -39.98,-23.98 -67.54,-23.98 -63.21,0 -117.18,47.87 -127.7,115.03 -5.45,33.5 2.29,65.54 21.29,87.87 17.47,20.54 42.38,29.1 72.05,29.1 50.93,0 79.17,-32.74 79.17,-32.74l-2.55 15.89c-0.96,6.08 3.72,11.53 9.86,11.53l51.5 0c8.16,0 15.11,-5.94 16.39,-14.03l30.93 -195.78c0.94,-6.02 -3.74,-11.49 -9.87,-11.49l0 0zm-79.73 111.33c-5.49,32.68 -31.46,54.62 -64.54,54.62 -16.58,0 -29.88,-5.33 -38.41,-15.43 -8.45,-10.02 -11.63,-24.29 -8.97,-40.19 5.18,-32.4 31.52,-55.05 64.1,-55.05 16.24,0 29.44,5.4 38.14,15.58 8.75,10.29 12.21,24.64 9.68,40.47l0 0zm0 0l0 0 0 0z"/>
    </g>
    <g>
     <path id="path24" class="fil2" d="M1578.92 394.47l-49.03 311.91c-0.96,6.04 3.72,11.49 9.82,11.49l49.28 0c8.2,0 15.15,-5.93 16.41,-14.02l48.34 -306.29c0.96,-6.05 -3.72,-11.51 -9.81,-11.51l-55.2 0c-4.87,0.01 -9.06,3.58 -9.81,8.42l0 0zm0 0l0 0 0 0z"/>
    </g>
   </g>
  </g>
 </g>
</svg>
