<?xml version="1.0" encoding="UTF-8"?>
<!DOCTYPE svg PUBLIC "-//W3C//DTD SVG 1.1//EN" "http://www.w3.org/Graphics/SVG/1.1/DTD/svg11.dtd">
<!-- Creator: CorelDRAW 2018 (64-Bit) -->
<svg xmlns="http://www.w3.org/2000/svg" xml:space="preserve" width="100mm" height="65mm" version="1.1" style="shape-rendering:geometricPrecision; text-rendering:geometricPrecision; image-rendering:optimizeQuality; fill-rule:evenodd; clip-rule:evenodd"
viewBox="0 0 10000 6500"
 xmlns:xlink="http://www.w3.org/1999/xlink">
 <defs>
  <style type="text/css">
   <![CDATA[
    .fil8 {fill:#15A179}
    .fil6 {fill:#FEFEFE;fill-rule:nonzero}
    .fil0 {fill:#2B2A29;fill-rule:nonzero}
    .fil11 {fill:#FFCE00;fill-rule:nonzero}
    .fil12 {fill:#EA5E20;fill-rule:nonzero}
    .fil7 {fill:#EA6443;fill-rule:nonzero}
    .fil5 {fill:#F9C504;fill-rule:nonzero}
    .fil2 {fill:#ABD4C0;fill-rule:nonzero}
    .fil10 {fill:#A8CEBB;fill-rule:nonzero}
    .fil1 {fill:#19A87F;fill-rule:nonzero}
    .fil3 {fill:#29292A;fill-rule:nonzero}
    .fil4 {fill:#29292A;fill-rule:nonzero}
    .fil9 {fill:#15A179;fill-rule:nonzero}
   ]]>
  </style>
 </defs>
 <g id="Слой_x0020_1">
  <metadata id="CorelCorpID_0Corel-Layer"/>
  <g id="_2033271859408">
   <path class="fil0" d="M375.36 6428.12l0 -286.41 86.87 0 51.33 195.34 50.74 -195.34 87.06 0 0 286.41 -53.6 0 -0.2 -225.48 -56.47 225.48 -55.73 0 -56.2 -225.48 -0.2 225.48 -53.6 0zm405.76 0l0 -286.41 58 0 0 286.41 -58 0zm186.9 0l0 -286.41 56.14 0 117.86 191.93 0 -191.93 53.6 0 0 286.41 -57.93 0 -116.07 -188.28 0 188.28 -53.6 0zm337.43 0l0 -52.01 150.93 -186 -133.73 0 0 -48.4 209.6 0 0 44.8 -156.8 193.2 162.8 0 0 48.41 -232.8 0zm341.3 0l0 -286.41 58 0 0 286.41 -58 0zm186.9 0l0 -286.41 196.79 0 0 48.4 -138.79 0 0 68 120 0 0 48.4 -120 0 0 121.61 -58 0zm554.03 0l-62.47 0 -24.74 -65.2 -114.87 0 -23.8 65.2 -61.33 0 111.2 -286.41 61.27 0 114.74 286.41zm-106.01 -113.61l-39.8 -105.99 -38.66 105.99 78.46 0zm371.31 113.61l0 -238.01 -84.8 0 0 -48.4 227.2 0 0 48.4 -84.41 0 0 238.01 -57.99 0zm253.69 0l0 -286.41 121.8 0c30.6,0 52.87,2.6 66.73,7.74 13.94,5.13 25.01,14.26 33.34,27.39 8.33,13.21 12.53,28.21 12.53,45.14 0,21.53 -6.27,39.26 -18.86,53.27 -12.61,14 -31.4,22.8 -56.47,26.46 12.46,7.27 22.73,15.27 30.8,24.01 8.13,8.73 19.07,24.26 32.8,46.53l34.93 55.87 -69.13 0 -41.47 -62.54c-14.86,-22.19 -25.07,-36.2 -30.6,-42 -5.47,-5.74 -11.27,-9.74 -17.4,-11.87 -6.2,-2.13 -15.93,-3.2 -29.27,-3.2l-11.73 0 0 119.61 -58 0zm58 -165.21l42.8 0c27.73,0 45,-1.19 51.93,-3.53 6.87,-2.33 12.34,-6.4 16.21,-12.13 3.92,-5.74 5.86,-12.94 5.86,-21.54 0,-9.67 -2.6,-17.4 -7.73,-23.4 -5.13,-5.93 -12.4,-9.67 -21.74,-11.2 -4.73,-0.66 -18.8,-1 -42.2,-1l-45.13 0 0 72.8zm562.63 165.21l-62.46 0 -24.74 -65.2 -114.87 0 -23.8 65.2 -61.33 0 111.2 -286.41 61.27 0 114.73 286.41zm-106 -113.61l-39.8 -105.99 -38.67 105.99 78.47 0zm254.23 113.61l-102.47 -286.41 62.67 0 72.73 212 69.79 -212 61.61 0 -101.87 286.41 -62.46 0zm267.3 0l0 -286.41 212 0 0 48.4 -154 0 0 63.61 143.19 0 0 48.39 -143.19 0 0 77.6 159.59 0 0 48.41 -217.59 0zm342.16 0l0 -284 58 0 0 235.59 143.6 0 0 48.41 -201.6 0z"/>
   <g>
    <path class="fil1" d="M50.71 2624.46c0,-1350.55 1098.72,-2449.29 2449.29,-2449.29 1350.54,0 2449.29,1098.74 2449.29,2449.29 0,615.1 -227.94,1177.87 -603.75,1608.49l66.62 0c366.56,-435.06 587.82,-996.37 587.82,-1608.49 0,-1378.5 -1121.5,-2499.99 -2499.98,-2499.99 -1378.52,0 -2500,1121.49 -2500,2499.99 0,612.12 221.25,1173.43 587.8,1608.49l66.63 0c-375.78,-430.62 -603.72,-993.39 -603.72,-1608.49z"/>
    <path class="fil1" d="M106.36 2624.46c0,-1319.87 1073.78,-2393.66 2393.64,-2393.66 1319.85,0 2393.64,1073.79 2393.64,2393.66 0,618.64 -235.89,1183.2 -622.45,1608.49l34.7 0c381.47,-427.84 613.72,-991.5 613.72,-1608.49 0,-1334.18 -1085.42,-2419.6 -2419.61,-2419.6 -1334.2,0 -2419.63,1085.42 -2419.63,2419.6 0,616.99 232.25,1180.65 613.75,1608.49l34.69 0c-386.55,-425.29 -622.45,-989.85 -622.45,-1608.49z"/>
    <path class="fil1" d="M3069.3 4460.86c0,28.25 23.08,51.27 51.31,51.27 28.39,0 51.32,-23.02 51.32,-51.27 0,-28.3 -22.93,-51.32 -51.32,-51.32 -28.23,0 -51.31,23.02 -51.31,51.32z"/>
    <path class="fil1" d="M1945.91 4575.6c-52.7,0 -99,9.88 -141.41,30.34l-2.58 1.28 0.95 73.66 6.73 -3.85c40.55,-22.69 78.88,-34.2 113.83,-34.2 62.48,0 98.27,35.75 98.27,98.26l0 3.61 -49.32 0c-142.02,0 -220.26,51.42 -220.26,144.82 0,74.92 56.59,127.17 137.27,127.17 59.54,0 105.34,-23.3 138.17,-67.19l0 61.49 77.89 0 0 -257.52c0,-118 -53.57,-177.87 -159.54,-177.87zm75.79 255.89c0,73.29 -44.13,120.62 -112.36,120.62 -41.76,0 -70.85,-27.47 -70.85,-66.82 0,-51.53 49.22,-79.9 138.78,-79.9l44.43 0 0 26.1z"/>
    <path class="fil1" d="M2471.8 4382.44l0 260.89c-31.67,-44.36 -75.9,-67.73 -133.03,-67.73 -105.39,0 -176.08,86.78 -176.08,215.94 0,133.1 71.67,225.97 174.53,225.97 60.94,0 108.21,-26.9 141.33,-79.35l0 72.83 79.71 0 0 -628.55 -86.46 0zm-112.25 563.81c-65.65,0 -106.47,-57.31 -106.47,-149.64 0,-92.41 41.1,-152.21 104.93,-152.21 71.36,0 113.79,57 113.79,152.21 0,90.85 -44.02,149.64 -112.25,149.64z"/>
    <polygon class="fil1" points="2943.61,4585.48 2821.29,4831.05 2708.15,4585.48 2610.93,4585.48 2819.53,5010.99 3033.8,4585.48 "/>
    <polygon class="fil1" points="3159.35,4585.48 3077.62,4585.48 3077.62,5010.99 3163.94,5010.99 3163.94,4585.48 "/>
    <path class="fil1" d="M3265 4694.58c0,59.89 41.17,91.46 116.98,128.57 47.99,23.46 72.9,37.27 72.9,70.44 0,33.99 -30.7,56 -78.31,56 -33.74,0 -71.14,-9.56 -108.2,-27.76l-6.37 -2.98 -2.8 74.88 2.89 1.16c35.37,13.89 72.81,21.04 111.25,21.04 105.53,0 173.72,-50.36 173.72,-128.17 0,-64.93 -43.37,-97.74 -118.05,-132.71 -54.81,-25.57 -77.67,-40.73 -77.67,-67.85 0,-25.97 25.56,-42.8 65.02,-42.8 35.65,0 70.44,7.97 103.38,23.7l6.13 2.9 3.93 -73.44 -3.54 -1.18c-35.73,-10.47 -71.05,-15.7 -104.91,-15.7 -93.47,0 -156.35,45.74 -156.35,113.9z"/>
    <path class="fil1" d="M3815.94 4575.6c-129.62,0 -210.09,85.32 -210.09,222.61 0,137.32 80.47,222.61 210.09,222.61 130.3,0 211.23,-85.29 211.23,-222.61 0,-137.29 -80.93,-222.61 -211.23,-222.61zm1 374.81c-71.73,0 -119.78,-61.47 -119.78,-152.89 0,-92.06 48.05,-153.84 119.78,-153.84 72.79,0 119.76,60.26 119.76,153.84 0,92.83 -46.97,152.89 -119.76,152.89z"/>
    <path class="fil1" d="M4186.28 4654.45l0 -68.94 -78.72 0 0 425.48 86.1 0 0 -213.47c0,-89.65 37.7,-138.88 105.73,-138.88 9.87,0 19.46,1.45 31.08,4.78l5.71 1.54 2.8 -84.06 -37.07 -2.87c-49.88,0 -90.37,27.06 -115.63,76.42z"/>
    <path class="fil2" d="M4488.78 4697.66c-20.78,0 -40.03,-8.27 -54.73,-23.47 -14.33,-14.7 -22.14,-33.55 -22.14,-53.59 0,-20.55 8.2,-40.39 23.49,-55.38 14.33,-14.2 32.6,-21.79 53.38,-21.79 21.3,0 40.73,8.11 55.55,23.27 14.28,14.44 21.51,33.35 21.51,53.9 0,21.3 -7.97,40.5 -22.82,54.75 -15.15,14.52 -34.37,22.31 -54.24,22.31zm0.19 -140.34c-17.02,0 -32.07,6.23 -43.95,17.8 -12.42,12.57 -18.98,28.54 -18.98,45.48 0,16.41 6.15,31.57 17.88,43.64 12.02,12.43 28.03,19.31 44.86,19.31 16.43,0 32.29,-6.43 44.64,-18.17 11.97,-11.62 18.61,-27.55 18.61,-44.78 0,-16.94 -6.23,-32.29 -17.87,-44.24 -12.25,-12.46 -27.94,-19.04 -45.19,-19.04zm-9.56 33.88l0 22.66 8.35 0c10.18,0 15.13,-3.62 15.13,-10.92 0,-8.29 -5.23,-11.74 -16.53,-11.74l-6.95 0zm48.33 69.9l-25.54 0 -15.92 -33.53 -6.87 0 0 33.53 -23.12 0 0 -84.54 34.03 0c24.1,0 36.59,8.75 36.59,24.51 0,11.16 -6.67,19.53 -18.07,22.87l18.9 37.16zm0 0l0 0z"/>
    <path class="fil3" d="M3324.28 3891.61c-129.2,47.66 -269.36,42.17 -394.61,-15.59 -125.08,-57.62 -220.13,-160.59 -267.69,-289.6l0 -0.09c-47.8,-129.12 -42.3,-269.25 15.16,-394.4 57.65,-124.99 160.58,-220.26 289.81,-267.97 266.86,-98.41 564.04,38.36 662.52,305.13 98.46,266.64 -38.41,563.84 -305.19,662.52zm-822.6 -533.18c-23.98,-330.14 -296.25,-591.9 -630.69,-598.53 184.97,-79.07 397.57,-122.17 627.97,-122.17 231.77,0 441.28,41.85 626.15,124.65 -67.8,2.08 -136.33,14.44 -203.39,39.15 -161.89,59.72 -290.81,179.09 -363.15,335.85 -32.46,70.82 -50.97,145.52 -56.89,221.05zm-643.61 562.47c-284.51,0 -515.76,-231.24 -515.76,-515.39 0,-284.45 231.25,-515.9 515.76,-515.9 284.32,0 515.51,231.45 515.51,515.9 0,284.15 -231.19,515.39 -515.51,515.39zm1893.77 -737c-21.82,-59.22 -51.86,-112.88 -87.66,-161.11 30.42,-129.34 127.14,-258.33 127.14,-258.33l-431.08 -0.32c-241.97,-156.22 -535.72,-239.11 -861.28,-239.11 -337.59,0 -642.45,84.95 -883.02,242.15l-404.47 0.26c0,0 95.33,127.58 126.41,256.04 -78.9,107.11 -126.15,238.96 -126.15,382.03 0,356.16 289.95,645.96 646.34,645.96 203.48,0 385.17,-94.85 503.59,-242.43l137.52 206 138.89 -207.8c62.3,79.39 142.61,143.67 236.9,187.21 157,72.25 332.57,79.38 494.5,19.52 334.34,-123.73 505.76,-496.13 382.37,-830.07z"/>
    <path class="fil4" d="M631.49 4457.32l-77.68 26.77 0 101.42 -86.23 0 0 68.12 83.7 0 0 218.44c0,103.9 35.42,146.31 122.18,146.31 22.14,0 43.22,-2.71 64.3,-8.45l3.43 -0.82 -0.93 -70.56 -6.02 2.09c-16.99,6.06 -30.31,8.95 -40.81,8.95 -40.75,0 -55.9,-23.07 -55.9,-84.98l0 -210.98 99.52 0 0 -68.12 -99.52 0 0 -130.28 -6.04 2.09z"/>
    <path class="fil4" d="M900.46 4654.45l0 -68.94 -78.85 0 0 425.48 86.19 0 0 -213.47c0,-89.65 37.64,-138.88 105.78,-138.88 9.77,0 19.37,1.45 31.03,4.78l5.58 1.54 2.89 -84.06 -37 -2.87c-49.99,0 -90.39,27.06 -115.62,76.42z"/>
    <path class="fil4" d="M1515.92 4575.6c-59.04,0 -108.96,28.17 -142.17,79.06l0 -69.18 -78.71 0 0 598.75 86.25 0 0 -232.12c31.18,42.23 75.94,65.4 131.5,65.4 109.06,0 179.4,-89.32 179.4,-227.51 0,-128.14 -70.75,-214.4 -176.27,-214.4zm-23.92 372.32c-68.39,0 -110.71,-58.4 -110.71,-152.19 0,-90.38 44.8,-148.72 113.92,-148.72 66.71,0 106.62,55.34 106.62,147.87 0,94.47 -42.09,153.04 -109.83,153.04z"/>
    <polygon class="fil4" points="1206.87,4585.48 1125.09,4585.48 1125.09,5010.99 1211.45,5010.99 1211.45,4585.48 "/>
    <path class="fil4" d="M1116.73 4460.86c0,28.25 23.17,51.27 51.4,51.27 28.23,0 51.22,-23.02 51.22,-51.27 0,-28.3 -22.99,-51.32 -51.22,-51.32 -28.23,0 -51.4,23.02 -51.4,51.32z"/>
    <path class="fil5" d="M2921.72 2801.53c67.06,-24.71 135.59,-37.07 203.39,-39.15 -184.87,-82.8 -394.38,-124.65 -626.15,-124.65 -230.4,0 -443,43.1 -627.97,122.17 334.44,6.63 606.71,268.39 630.69,598.53 5.92,-75.53 24.43,-150.23 56.89,-221.05 72.34,-156.76 201.26,-276.13 363.15,-335.85z"/>
    <path class="fil6" d="M3144.37 3718.75c-175.96,0 -319.22,-143.15 -319.22,-319.1 0,-175.84 143.26,-319.01 319.22,-319.01 175.85,0 318.8,143.17 318.8,319.01 0,175.95 -142.95,319.1 -318.8,319.1zm-177.42 -794.79c-129.23,47.71 -232.16,142.98 -289.81,267.97 -57.46,125.15 -62.96,265.28 -15.16,394.4l0 0.09c47.56,129.01 142.61,231.98 267.69,289.6 125.25,57.76 265.41,63.25 394.61,15.59 266.78,-98.68 403.65,-395.88 305.19,-662.52 -98.48,-266.77 -395.66,-403.54 -662.52,-305.13z"/>
    <path class="fil6" d="M3144.37 3507.07c-59.63,0 -107.4,-48.21 -107.4,-107.42 0,-59.42 47.77,-107.33 107.4,-107.33 59.21,0 107.21,47.91 107.21,107.33 0,59.21 -48,107.42 -107.21,107.42zm0 -316.53c-115.53,0 -209.32,93.81 -209.32,209.11 0,115.28 93.79,209.22 209.32,209.22 115.2,0 209.01,-93.94 209.01,-209.22 0,-115.3 -93.81,-209.11 -209.01,-209.11z"/>
    <path class="fil6" d="M1849.65 3507.07c-59.39,0 -107.54,-48.21 -107.54,-107.42 0,-59.42 48.15,-107.33 107.54,-107.33 59.19,0 107.31,47.91 107.31,107.33 0,59.21 -48.12,107.42 -107.31,107.42zm0.32 -316.53c-115.48,0 -209.53,93.81 -209.53,209.11 0,115.28 94.05,209.22 209.53,209.22 115.09,0 208.82,-93.94 208.82,-209.22 0,-115.3 -93.73,-209.11 -208.82,-209.11z"/>
    <path class="fil6" d="M1849.97 3718.75c-176.18,0 -319.32,-143.15 -319.32,-319.1 0,-175.84 143.14,-319.01 319.32,-319.01 175.81,0 318.7,143.17 318.7,319.01 0,175.95 -142.89,319.1 -318.7,319.1zm8.1 -829.14c-284.51,0 -515.76,231.45 -515.76,515.9 0,284.15 231.25,515.39 515.76,515.39 284.32,0 515.51,-231.24 515.51,-515.39 0,-284.45 -231.19,-515.9 -515.51,-515.9z"/>
    <path class="fil7" d="M1849.65 3292.32c-59.39,0 -107.54,47.91 -107.54,107.33 0,59.21 48.15,107.42 107.54,107.42 59.19,0 107.31,-48.21 107.31,-107.42 0,-59.42 -48.12,-107.33 -107.31,-107.33z"/>
    <path class="fil1" d="M3144.37 3292.32c-59.63,0 -107.4,47.91 -107.4,107.33 0,59.21 47.77,107.42 107.4,107.42 59.21,0 107.21,-48.21 107.21,-107.42 0,-59.42 -48,-107.33 -107.21,-107.33z"/>
    <path class="fil3" d="M1849.97 3608.87c-115.48,0 -209.53,-93.94 -209.53,-209.22 0,-115.3 94.05,-209.11 209.53,-209.11 115.09,0 208.82,93.81 208.82,209.11 0,115.28 -93.73,209.22 -208.82,209.22zm0 -528.23c-176.18,0 -319.32,143.17 -319.32,319.01 0,175.95 143.14,319.1 319.32,319.1 175.81,0 318.7,-143.15 318.7,-319.1 0,-175.84 -142.89,-319.01 -318.7,-319.01z"/>
    <path class="fil3" d="M3144.37 3608.87c-115.53,0 -209.32,-93.94 -209.32,-209.22 0,-115.3 93.79,-209.11 209.32,-209.11 115.2,0 209.01,93.81 209.01,209.11 0,115.28 -93.81,209.22 -209.01,209.22zm0 -528.23c-175.96,0 -319.22,143.17 -319.22,319.01 0,175.95 143.26,319.1 319.22,319.1 175.85,0 318.8,-143.15 318.8,-319.1 0,-175.84 -142.95,-319.01 -318.8,-319.01z"/>
    <path class="fil4" d="M4032.1 2763.66c13.79,13.98 21.11,32.53 21.11,52.44 0,20.91 -7.8,39.68 -22.33,53.46 -14.77,14.12 -33.61,21.75 -53.11,21.75 -19.92,0 -38.81,-7.91 -53.27,-22.8 -13.98,-14.38 -21.59,-32.73 -21.59,-52.41 0,-19.91 8.1,-39.41 22.79,-53.98 14.21,-13.77 32.15,-21.18 52.07,-21.18 20.89,0 39.87,7.82 54.33,22.72zm-96.88 8.21c-12.13,12.25 -18.41,27.86 -18.41,44.23 0,16.25 5.89,31.03 17.4,42.67 11.66,12.19 27.16,18.77 43.56,18.77 16.26,0 31.75,-6.19 43.58,-17.66 11.77,-11.42 18.24,-26.82 18.24,-43.78 0,-16.37 -6.08,-31.51 -17.46,-43.06 -11.9,-12.03 -27.12,-18.5 -43.93,-18.5 -16.83,0 -31.4,5.97 -42.98,17.33zm44.18 1.39c23.73,0 35.56,8.53 35.56,23.91 0,10.77 -6.38,18.93 -17.39,22.3l18.22 36.31 -24.82 0 -15.46 -32.9 -6.76 0 0 32.9 -22.58 0 0 -82.52 33.23 0zm-10.65 36.29l8.15 0c9.9,0 14.76,-3.46 14.76,-10.76 0,-7.9 -5.05,-11.24 -15.97,-11.24l-6.94 0 0 22z"/>
    <path class="fil3" d="M1245.78 1440.21l59.85 18.96c-9.19,33.35 -24.43,58.15 -45.77,74.33 -21.35,16.2 -48.41,24.3 -81.22,24.3 -40.59,0 -73.94,-13.86 -100.07,-41.61 -26.12,-27.71 -39.19,-65.62 -39.19,-113.72 0,-50.88 13.11,-90.38 39.38,-118.53 26.28,-28.14 60.81,-42.23 103.63,-42.23 37.4,0 67.76,11.05 91.13,33.15 13.89,13.08 24.32,31.84 31.27,56.31l-61.09 14.6c-3.63,-15.86 -11.14,-28.37 -22.63,-37.55 -11.47,-9.17 -25.41,-13.76 -41.8,-13.76 -22.67,0 -41.05,8.13 -55.16,24.42 -14.09,16.25 -21.15,42.59 -21.15,79 0,38.63 6.95,66.17 20.85,82.57 13.89,16.41 31.96,24.6 54.22,24.6 16.39,0 30.49,-5.19 42.33,-15.63 11.81,-10.43 20.27,-26.82 25.42,-49.21z"/>
    <polygon class="fil3" points="1362.85,1552.58 1362.85,1246.94 1589.47,1246.94 1589.47,1298.64 1424.54,1298.64 1424.54,1366.4 1578.01,1366.4 1578.01,1417.91 1424.54,1417.91 1424.54,1501.1 1595.32,1501.1 1595.32,1552.58 "/>
    <path class="fil3" d="M1713.65 1298.64l0 86.73 33.76 0c24.34,0 40.61,-1.58 48.79,-4.79 8.19,-3.2 14.62,-8.21 19.29,-15.01 4.65,-6.82 6.99,-14.74 6.99,-23.78 0,-11.11 -3.28,-20.28 -9.82,-27.53 -6.51,-7.21 -14.78,-11.71 -24.8,-13.55 -7.35,-1.37 -22.16,-2.07 -44.4,-2.07l-29.81 0zm-61.72 253.94l0 -305.64 99.04 0c37.53,0 61.98,1.52 73.38,4.58 17.52,4.58 32.18,14.57 43.99,29.92 11.82,15.36 17.72,35.21 17.72,59.53 0,18.76 -3.41,34.55 -10.2,47.32 -6.82,12.79 -15.47,22.84 -25.97,30.14 -10.49,7.27 -21.15,12.11 -31.99,14.48 -14.75,2.91 -36.09,4.39 -64.02,4.39l-40.23 0 0 115.28 -61.72 0z"/>
    <polygon class="fil3" points="2004.18,1552.58 2004.18,1298.64 1913.49,1298.64 1913.49,1246.94 2156.35,1246.94 2156.35,1298.64 2065.89,1298.64 2065.89,1552.58 "/>
    <polygon class="fil3" points="2201.28,1246.94 2259.05,1246.94 2259.05,1450.41 2382.89,1246.94 2444.39,1246.94 2444.39,1552.58 2386.65,1552.58 2386.65,1353.06 2263,1552.58 2201.28,1552.58 "/>
    <path class="fil3" d="M2693.01 1465.42c16.16,0 30.01,-2.67 41.61,-8.1 11.62,-5.43 19.82,-12.75 24.71,-21.89 4.86,-9.18 7.29,-22.61 7.29,-40.26 0,-44.19 -24.53,-66.3 -73.61,-66.3l0 136.55zm-60.45 0l0 -136.55c-25.97,0 -44.74,5.8 -56.29,17.42 -11.53,11.59 -17.29,29.14 -17.29,52.64 0,44.34 24.5,66.49 73.58,66.49zm60.45 51.53l0 35.63 -60.45 0 0 -35.63c-48.77,-1.82 -83.21,-13.88 -103.31,-36.2 -20.08,-22.3 -30.12,-50.21 -30.12,-83.69 0,-35.31 10.49,-63.65 31.5,-84.97 20.97,-21.35 54.95,-32.92 101.93,-34.73l0 -30.22 60.45 0 0 30.22c48.54,1.81 82.91,13.77 103.11,35.88 20.24,22.08 30.36,50.1 30.36,84.01 0,33.66 -10.1,61.55 -30.25,83.72 -20.13,22.17 -54.55,34.16 -103.22,35.98z"/>
    <polygon class="fil3" points="2881.18,1246.94 2938.96,1246.94 2938.96,1450.41 3062.81,1246.94 3124.31,1246.94 3124.31,1552.58 3066.56,1552.58 3066.56,1353.06 2942.89,1552.58 2881.18,1552.58 "/>
    <path class="fil3" d="M3192.55 1246.94l61.72 0 0 130.1c13.77,-1.39 23.08,-4.96 27.95,-10.64 4.87,-5.69 12.37,-21.54 22.52,-47.52 12.77,-33.09 25.64,-53.66 38.56,-61.71 12.8,-8.11 33.45,-12.12 61.92,-12.12 1.41,0 4.38,-0.07 8.97,-0.21l0 45.68 -8.76 -0.21c-12.64,0 -21.89,1.56 -27.7,4.69 -5.87,3.1 -10.6,7.88 -14.2,14.26 -3.61,6.41 -8.97,19.54 -16.06,39.44 -3.75,10.55 -7.82,19.37 -12.18,26.45 -4.41,7.1 -12.14,13.76 -23.26,20.02 13.77,3.91 25.11,11.75 34.1,23.56 8.97,11.81 18.78,28.49 29.48,50.06l41.72 83.79 -72.57 0 -36.48 -79.01c-0.57,-1.14 -1.74,-3.27 -3.54,-6.48 -0.7,-1.08 -3.28,-5.89 -7.71,-14.37 -7.93,-15.01 -14.42,-24.41 -19.52,-28.15 -5.06,-3.75 -12.79,-5.68 -23.24,-5.84l0 133.85 -61.72 0 0 -305.64z"/>
    <path class="fil3" d="M3618.44 1431.68l-42.13 -113.45 -41.28 113.45 83.41 0zm113.61 120.9l-67.12 0 -26.69 -69.42 -122.17 0 -25.23 69.42 -65.47 0 119.04 -305.64 65.26 0 122.38 305.64z"/>
    <polygon class="fil3" points="3816.59,1552.58 3816.59,1298.64 3725.91,1298.64 3725.91,1246.94 3968.78,1246.94 3968.78,1298.64 3878.31,1298.64 3878.31,1552.58 "/>
    <path class="fil3" d="M811.63 1679.27l92.9 0 0 195.85c20.71,-2.08 34.74,-7.42 42.06,-16 7.29,-8.58 18.6,-32.44 33.9,-71.57 19.23,-49.79 38.58,-80.74 58.06,-92.9 19.24,-12.12 50.29,-18.2 93.2,-18.2 2.11,0 6.61,-0.11 13.51,-0.32l0 68.75 -13.18 -0.31c-19.05,0 -32.96,2.35 -41.74,7.06 -8.82,4.71 -15.91,11.88 -21.37,21.48 -5.43,9.64 -13.48,29.42 -24.14,59.34 -5.67,15.9 -11.78,29.19 -18.38,39.85 -6.58,10.67 -18.26,20.72 -34.98,30.12 20.7,5.86 37.81,17.7 51.29,35.47 13.51,17.8 28.32,42.9 44.43,75.32l62.78 126.19 -109.25 0 -54.92 -118.95c-0.82,-1.67 -2.6,-4.94 -5.31,-9.73 -1.07,-1.68 -4.92,-8.88 -11.63,-21.65 -11.91,-22.61 -21.71,-36.74 -29.35,-42.39 -7.62,-5.65 -19.29,-8.58 -34.98,-8.79l0 201.51 -92.9 0 0 -460.13z"/>
    <path class="fil3" d="M1452.67 1957.36l-63.41 -170.75 -62.13 170.75 125.54 0zm171.05 182.04l-101.06 0 -40.18 -104.51 -183.91 0 -37.98 104.51 -98.56 0 179.22 -460.13 98.23 0 184.24 460.13z"/>
    <path class="fil3" d="M1622.91 1679.27l92.9 0 0 109.86c0,35.57 1.31,59.16 3.94,70.77 2.6,11.62 10.42,21.7 23.36,30.3 12.98,8.56 32.03,12.88 57.13,12.88 19.87,0 37.57,-2.16 53.03,-6.45 15.48,-4.28 28.91,-10.6 40.2,-18.98l0 -198.38 92.87 0 0 460.13 -92.87 0 0 -185.19c-18.83,8.38 -37.37,14.71 -55.57,18.98 -18.18,4.3 -36.09,6.46 -53.66,6.46 -45.84,0 -84.17,-10.84 -115.03,-32.49 -30.85,-21.65 -46.3,-59.18 -46.3,-112.53l0 -155.36z"/>
    <polygon class="fil3" points="2088.5,2139.4 2088.5,1679.27 2429.67,1679.27 2429.67,1757.12 2181.41,1757.12 2181.41,1859.12 2412.43,1859.12 2412.43,1936.65 2181.41,1936.65 2181.41,2061.86 2438.46,2061.86 2438.46,2139.4 "/>
    <path class="fil3" d="M2818.07 1970.22l90.08 28.58c-13.82,50.2 -36.79,87.49 -68.88,111.87 -32.14,24.37 -72.9,36.57 -122.26,36.57 -61.11,0 -111.32,-20.86 -150.66,-62.62 -39.33,-41.74 -58.99,-98.81 -58.99,-171.21 0,-76.57 19.77,-136.07 59.31,-178.41 39.55,-42.39 91.53,-63.56 155.99,-63.56 56.26,0 101.99,16.63 137.15,49.9 20.93,19.67 36.64,47.92 47.08,84.73l-91.94 21.96c-5.46,-23.82 -16.81,-42.65 -34.08,-56.49 -17.26,-13.81 -38.22,-20.69 -62.93,-20.69 -34.09,0 -61.78,12.22 -83,36.7 -21.26,24.49 -31.85,64.12 -31.85,118.96 0,58.17 10.45,99.6 31.37,124.29 20.92,24.69 48.13,37.05 81.62,37.05 24.69,0 45.9,-7.86 63.71,-23.54 17.78,-15.7 30.53,-40.41 38.28,-74.09z"/>
    <polygon class="fil3" points="3081.87,2139.4 3081.87,1757.12 2945.35,1757.12 2945.35,1679.27 3310.97,1679.27 3310.97,1757.12 3174.77,1757.12 3174.77,2139.4 "/>
    <path class="fil3" d="M3470.58 1938.84l0 123.02 85.99 0c33.49,0 54.72,-0.94 63.72,-2.83 13.81,-2.49 25.06,-8.61 33.72,-18.35 8.71,-9.72 13.05,-22.75 13.05,-39.06 0,-13.81 -3.34,-25.54 -10.06,-35.16 -6.71,-9.64 -16.37,-16.63 -29.03,-21.02 -12.66,-4.41 -40.13,-6.6 -82.39,-6.6l-75 0zm0 -182.97l0 106.4 60.89 0c36.2,0 58.7,-0.54 67.47,-1.56 15.92,-1.89 28.4,-7.39 37.52,-16.49 9.1,-9.11 13.64,-21.08 13.64,-35.93 0,-14.25 -3.93,-25.8 -11.77,-34.68 -7.86,-8.9 -19.52,-14.29 -35,-16.18 -9.21,-1.05 -35.66,-1.56 -79.4,-1.56l-53.35 0zm-92.9 -76.6l183.91 0c36.41,0 63.56,1.52 81.44,4.56 17.91,3.04 33.91,9.37 48.03,18.98 14.14,9.62 25.91,22.44 35.31,38.44 9.42,16.03 14.13,33.96 14.13,53.83 0,21.57 -5.82,41.33 -17.43,59.33 -11.6,18 -27.37,31.51 -47.24,40.5 28.04,8.17 49.58,22.06 64.67,41.74 15.05,19.67 22.59,42.77 22.59,69.35 0,20.94 -4.87,41.26 -14.6,61.05 -9.72,19.78 -23.01,35.57 -39.85,47.38 -16.84,11.84 -37.63,19.11 -62.3,21.83 -15.48,1.66 -52.85,2.71 -112.05,3.14l-156.61 0 0 -460.13z"/>
    <path class="fil3" d="M4059.85 1957.36l-63.41 -170.75 -62.13 170.75 125.54 0zm171.06 182.04l-101.09 0 -40.15 -104.51 -183.93 0 -37.98 104.51 -98.55 0 179.22 -460.13 98.22 0 184.26 460.13z"/>
    <path class="fil3" d="M2109.26 1025.4l0 -35.83c26.27,-23.65 47.23,-44.52 62.87,-62.54 15.63,-18.03 26.38,-32.42 32.22,-43.18 5.88,-10.74 8.81,-21.32 8.81,-31.74 0,-10.64 -3.25,-19.07 -9.76,-25.26 -6.52,-6.19 -15.23,-9.25 -26.07,-9.25 -10.42,0 -20.62,2.43 -30.62,7.3 -9.99,4.91 -19.1,11.79 -27.38,20.69l-8.14 -39.41c8.92,-8.9 19.87,-15.85 32.92,-20.85 13.03,-4.99 26.6,-7.49 40.71,-7.49 23.22,0 41.74,6.17 55.55,18.57 13.77,12.38 20.68,28.99 20.68,49.83 0,15.64 -3.98,31.43 -11.9,47.41 -7.91,15.96 -20.57,33.7 -37.94,53.23 -7.38,8.27 -19.87,20.75 -37.46,37.48l94.46 0 0 41.04 -158.95 0z"/>
    <path class="fil3" d="M2391.99 989.24c26.49,0 39.74,-28.34 39.74,-85.02 0,-56.67 -13.25,-85.01 -39.74,-85.01 -26.3,0 -39.41,28.34 -39.41,85.01 0,56.68 13.11,85.02 39.41,85.02zm0 41.37c-28.01,0 -49.84,-11.14 -65.5,-33.38 -15.61,-22.28 -23.45,-53.27 -23.45,-93.01 0,-39.73 7.84,-70.72 23.45,-92.98 15.66,-22.26 37.49,-33.4 65.5,-33.4 28.01,0 49.88,11.19 65.65,33.55 15.72,22.37 23.58,53.31 23.58,92.83 0,39.53 -7.86,70.47 -23.58,92.84 -15.77,22.36 -37.64,33.55 -65.65,33.55z"/>
    <polygon class="fil3" points="2586.78,830.28 2523.89,858.32 2516.42,818.23 2596.2,783.05 2632.69,783.05 2632.69,1025.4 2586.78,1025.4 "/>
    <path class="fil3" d="M2773.32 881.95c11.72,0 20.97,-3.02 27.84,-9.13 6.81,-6.08 10.26,-14.22 10.26,-24.43 0,-10.18 -3.49,-18.39 -10.44,-24.6 -6.94,-6.19 -16.18,-9.27 -27.66,-9.27 -11.53,0 -20.74,3.08 -27.71,9.27 -6.95,6.21 -10.43,14.42 -10.43,24.6 0,10.21 3.44,18.35 10.25,24.43 6.86,6.11 16.16,9.13 27.89,9.13zm0 110.75c12.79,0 22.93,-3.33 30.44,-9.93 7.49,-6.63 11.25,-15.59 11.25,-26.86 0,-11.31 -3.83,-20.33 -11.42,-27.06 -7.58,-6.71 -17.7,-10.08 -30.27,-10.08 -12.6,0 -22.72,3.37 -30.32,10.08 -7.58,6.73 -11.38,15.75 -11.38,27.06 0,11.27 3.73,20.23 11.21,26.86 7.51,6.6 17.65,9.93 30.49,9.93zm0 38.12c-17.4,0 -32.75,-2.88 -46.1,-8.66 -13.39,-5.73 -23.78,-13.98 -31.27,-24.73 -7.52,-10.77 -11.23,-23.41 -11.23,-37.94 0,-13.92 3.51,-26.27 10.57,-37.13 7.06,-10.86 16.57,-18.7 28.49,-23.46 -10.63,-5.01 -18.78,-12.22 -24.43,-21.67 -5.64,-9.44 -8.45,-20.37 -8.45,-32.72 0,-12.81 3.35,-24.24 10.11,-34.2 6.71,-10.02 16.3,-17.88 28.81,-23.63 12.48,-5.75 26.97,-8.65 43.5,-8.65 15.61,0 29.68,2.72 42.17,8.15 12.46,5.43 22.3,13.18 29.46,23.28 7.19,10.12 10.78,21.78 10.78,35.05 0,12.35 -2.89,23.28 -8.65,32.72 -5.77,9.45 -13.94,16.66 -24.6,21.67 12.16,4.76 21.76,12.54 28.81,23.29 7.08,10.74 10.62,23.16 10.62,37.3 0,14.09 -3.54,26.54 -10.62,37.26 -7.05,10.78 -17.28,19.14 -30.77,25.11 -13.46,5.97 -29.2,8.96 -47.2,8.96z"/>
   </g>
   <path class="fil8" d="M1476.84 5395.71c61.59,0 111.51,49.92 111.51,111.51 0,61.59 -49.92,111.51 -111.51,111.51 -61.59,0 -111.51,-49.92 -111.51,-111.51 0,-61.59 49.92,-111.51 111.51,-111.51zm0 -113.35c124.2,0 224.87,100.66 224.87,224.86 0,124.2 -100.67,224.86 -224.87,224.86 -124.2,0 -224.86,-100.66 -224.86,-224.86 0,-124.2 100.66,-224.86 224.86,-224.86zm122.57 102.29c-31.35,-31.35 -74.7,-50.75 -122.57,-50.75 -47.87,0 -91.21,19.4 -122.57,50.75l-0.09 -0.09c-31.29,31.34 -50.66,74.71 -50.66,122.66 0,47.94 19.37,91.32 50.66,122.66 31.35,31.3 74.72,50.67 122.66,50.67 47.95,0 91.32,-19.37 122.66,-50.67l-0.09 -0.09c31.36,-31.36 50.76,-74.7 50.76,-122.57 0,-47.87 -19.4,-91.21 -50.76,-122.57zm327.16 -50.75c-47.87,0 -91.21,19.4 -122.57,50.75l-0.09 -0.09c-31.3,31.34 -50.67,74.71 -50.67,122.66 0,47.94 19.37,91.32 50.67,122.66 31.34,31.3 74.72,50.67 122.66,50.67 47.95,0 91.32,-19.37 122.66,-50.67l-0.09 -0.09c31.36,-31.36 50.75,-74.7 50.75,-122.57 0,-47.87 -19.39,-91.21 -50.75,-122.57 -31.36,-31.35 -74.7,-50.75 -122.57,-50.75zm0 -51.54c-124.2,0 -224.86,100.66 -224.86,224.86 0,124.2 100.66,224.86 224.86,224.86 124.2,0 224.86,-100.66 224.86,-224.86 0,-124.2 -100.66,-224.86 -224.86,-224.86zm449.73 0c124.19,0 224.86,100.66 224.86,224.86 0,124.2 -100.67,224.86 -224.86,224.86 -124.2,0 -224.87,-100.66 -224.87,-224.86 0,-124.2 100.67,-224.86 224.87,-224.86zm122.57 102.29c-31.36,-31.35 -74.7,-50.75 -122.57,-50.75 -47.87,0 -91.22,19.4 -122.57,50.75l-0.1 -0.09c-31.29,31.34 -50.66,74.71 -50.66,122.66 0,47.94 19.37,91.32 50.66,122.66 31.35,31.3 74.73,50.67 122.67,50.67 47.95,0 91.31,-19.37 122.66,-50.67l-0.09 -0.09c31.35,-31.36 50.75,-74.7 50.75,-122.57 0,-47.87 -19.4,-91.21 -50.75,-122.57zm327.15 -50.75c-47.87,0 -91.21,19.4 -122.57,50.75l-0.09 -0.09c-31.29,31.34 -50.66,74.71 -50.66,122.66 0,47.94 19.37,91.32 50.66,122.66 31.35,31.3 74.72,50.67 122.66,50.67 47.96,0 91.32,-19.37 122.67,-50.67l-0.1 -0.09c31.36,-31.36 50.76,-74.7 50.76,-122.57 0,-47.87 -19.4,-91.21 -50.76,-122.57 -31.35,-31.35 -74.7,-50.75 -122.57,-50.75zm0 -51.54c-124.19,0 -224.86,100.66 -224.86,224.86 0,124.2 100.67,224.86 224.86,224.86 124.2,0 224.87,-100.66 224.87,-224.86 0,-124.2 -100.67,-224.86 -224.87,-224.86zm449.73 0c124.2,0 224.86,100.66 224.86,224.86 0,124.2 -100.66,224.86 -224.86,224.86 -124.2,0 -224.86,-100.66 -224.86,-224.86 0,-124.2 100.66,-224.86 224.86,-224.86zm122.57 102.29c-31.36,-31.35 -74.7,-50.75 -122.57,-50.75 -47.87,0 -91.21,19.4 -122.57,50.75l-0.09 -0.09c-31.3,31.34 -50.66,74.71 -50.66,122.66 0,47.94 19.36,91.32 50.66,122.66 31.34,31.3 74.72,50.67 122.66,50.67 47.95,0 91.32,-19.37 122.66,-50.67l-0.09 -0.09c31.36,-31.36 50.76,-74.7 50.76,-122.57 0,-47.87 -19.4,-91.21 -50.76,-122.57zm-1471.75 11.06c-61.59,0 -111.51,49.92 -111.51,111.51 0,61.59 49.92,111.51 111.51,111.51 61.59,0 111.51,-49.92 111.51,-111.51 0,-61.59 -49.92,-111.51 -111.51,-111.51zm449.73 0c61.59,0 111.51,49.92 111.51,111.51 0,61.59 -49.92,111.51 -111.51,111.51 -61.59,0 -111.51,-49.92 -111.51,-111.51 0,-61.59 49.92,-111.51 111.51,-111.51zm449.72 0c-61.59,0 -111.51,49.92 -111.51,111.51 0,61.59 49.92,111.51 111.51,111.51 61.59,0 111.51,-49.92 111.51,-111.51 0,-61.59 -49.92,-111.51 -111.51,-111.51zm449.73 0c61.59,0 111.51,49.92 111.51,111.51 0,61.59 -49.92,111.51 -111.51,111.51 -61.59,0 -111.51,-49.92 -111.51,-111.51 0,-61.59 49.92,-111.51 111.51,-111.51z"/>
   <path class="fil8" d="M6600.54 5395.71c61.58,0 111.5,49.92 111.5,111.51 0,61.59 -49.92,111.51 -111.5,111.51 -61.59,0 -111.51,-49.92 -111.51,-111.51 0,-61.59 49.92,-111.51 111.51,-111.51zm0 -113.35c124.19,0 224.86,100.66 224.86,224.86 0,124.2 -100.67,224.86 -224.86,224.86 -124.2,0 -224.87,-100.66 -224.87,-224.86 0,-124.2 100.67,-224.86 224.87,-224.86zm122.57 102.29c-31.36,-31.35 -74.71,-50.75 -122.57,-50.75 -47.87,0 -91.22,19.4 -122.57,50.75l-0.1 -0.09c-31.29,31.34 -50.66,74.71 -50.66,122.66 0,47.94 19.37,91.32 50.66,122.66 31.35,31.3 74.72,50.67 122.67,50.67 47.95,0 91.31,-19.37 122.66,-50.67l-0.09 -0.09c31.35,-31.36 50.75,-74.7 50.75,-122.57 0,-47.87 -19.4,-91.21 -50.75,-122.57zm327.15 -50.75c-47.87,0 -91.21,19.4 -122.57,50.75l-0.09 -0.09c-31.29,31.34 -50.66,74.71 -50.66,122.66 0,47.94 19.37,91.32 50.66,122.66 31.35,31.3 74.72,50.67 122.66,50.67 47.95,0 91.32,-19.37 122.66,-50.67l-0.09 -0.09c31.36,-31.36 50.76,-74.7 50.76,-122.57 0,-47.87 -19.4,-91.21 -50.76,-122.57 -31.35,-31.35 -74.7,-50.75 -122.57,-50.75zm0 -51.54c-124.2,0 -224.86,100.66 -224.86,224.86 0,124.2 100.66,224.86 224.86,224.86 124.2,0 224.87,-100.66 224.87,-224.86 0,-124.2 -100.67,-224.86 -224.87,-224.86zm449.73 0c124.2,0 224.86,100.66 224.86,224.86 0,124.2 -100.66,224.86 -224.86,224.86 -124.2,0 -224.86,-100.66 -224.86,-224.86 0,-124.2 100.66,-224.86 224.86,-224.86zm122.57 102.29c-31.36,-31.35 -74.7,-50.75 -122.57,-50.75 -47.87,0 -91.21,19.4 -122.57,50.75l-0.09 -0.09c-31.3,31.34 -50.67,74.71 -50.67,122.66 0,47.94 19.37,91.32 50.67,122.66 31.34,31.3 74.72,50.67 122.66,50.67 47.95,0 91.32,-19.37 122.66,-50.67l-0.09 -0.09c31.36,-31.36 50.75,-74.7 50.75,-122.57 0,-47.87 -19.39,-91.21 -50.75,-122.57zm327.16 -50.75c-47.87,0 -91.22,19.4 -122.57,50.75l-0.1 -0.09c-31.29,31.34 -50.66,74.71 -50.66,122.66 0,47.94 19.37,91.32 50.66,122.66 31.35,31.3 74.73,50.67 122.67,50.67 47.95,0 91.31,-19.37 122.66,-50.67l-0.09 -0.09c31.35,-31.36 50.75,-74.7 50.75,-122.57 0,-47.87 -19.4,-91.21 -50.75,-122.57 -31.36,-31.35 -74.7,-50.75 -122.57,-50.75zm0 -51.54c-124.2,0 -224.87,100.66 -224.87,224.86 0,124.2 100.67,224.86 224.87,224.86 124.19,0 224.86,-100.66 224.86,-224.86 0,-124.2 -100.67,-224.86 -224.86,-224.86zm449.72 0c124.2,0 224.87,100.66 224.87,224.86 0,124.2 -100.67,224.86 -224.87,224.86 -124.19,0 -224.86,-100.66 -224.86,-224.86 0,-124.2 100.67,-224.86 224.86,-224.86zm122.57 102.29c-31.35,-31.35 -74.7,-50.75 -122.57,-50.75 -47.87,0 -91.21,19.4 -122.57,50.75l-0.09 -0.09c-31.29,31.34 -50.66,74.71 -50.66,122.66 0,47.94 19.37,91.32 50.66,122.66 31.35,31.3 74.72,50.67 122.66,50.67 47.96,0 91.32,-19.37 122.67,-50.67l-0.1 -0.09c31.36,-31.36 50.76,-74.7 50.76,-122.57 0,-47.87 -19.4,-91.21 -50.76,-122.57zm-1471.75 11.06c-61.59,0 -111.51,49.92 -111.51,111.51 0,61.59 49.92,111.51 111.51,111.51 61.59,0 111.51,-49.92 111.51,-111.51 0,-61.59 -49.92,-111.51 -111.51,-111.51zm449.73 0c61.59,0 111.51,49.92 111.51,111.51 0,61.59 -49.92,111.51 -111.51,111.51 -61.59,0 -111.51,-49.92 -111.51,-111.51 0,-61.59 49.92,-111.51 111.51,-111.51zm449.73 0c-61.59,0 -111.51,49.92 -111.51,111.51 0,61.59 49.92,111.51 111.51,111.51 61.59,0 111.51,-49.92 111.51,-111.51 0,-61.59 -49.92,-111.51 -111.51,-111.51zm449.72 0c61.59,0 111.51,49.92 111.51,111.51 0,61.59 -49.92,111.51 -111.51,111.51 -61.58,0 -111.51,-49.92 -111.51,-111.51 0,-61.59 49.93,-111.51 111.51,-111.51z"/>
   <g>
    <path class="fil3" d="M6245.78 1394.54l59.85 19.2c-9.19,33.78 -24.44,58.89 -45.78,75.27 -21.35,16.41 -48.41,24.61 -81.22,24.61 -40.59,0 -73.94,-14.03 -100.06,-42.13 -26.13,-28.06 -39.2,-66.45 -39.2,-115.16 0,-51.53 13.12,-91.53 39.39,-120.02 26.28,-28.5 60.81,-42.77 103.63,-42.77 37.4,0 67.75,11.19 91.12,33.57 13.89,13.24 24.32,32.24 31.27,57.02l-61.09 14.78c-3.62,-16.05 -11.14,-28.72 -22.62,-38.02 -11.47,-9.28 -25.41,-13.94 -41.81,-13.94 -22.67,0 -41.04,8.24 -55.16,24.74 -14.09,16.45 -21.15,43.12 -21.15,79.99 0,39.12 6.95,67.01 20.85,83.61 13.9,16.63 31.97,24.92 54.23,24.92 16.39,0 30.48,-5.26 42.32,-15.84 11.81,-10.55 20.28,-27.15 25.43,-49.83z"/>
    <polygon class="fil3" points="6362.85,1508.34 6362.85,1198.84 6589.47,1198.84 6589.47,1251.19 6424.54,1251.19 6424.54,1319.8 6578,1319.8 6578,1371.96 6424.54,1371.96 6424.54,1456.21 6595.31,1456.21 6595.31,1508.34 "/>
    <path class="fil3" d="M6713.64 1251.19l0 87.83 33.77 0c24.34,0 40.61,-1.6 48.79,-4.86 8.19,-3.23 14.62,-8.31 19.29,-15.19 4.65,-6.91 6.99,-14.93 6.99,-24.08 0,-11.26 -3.28,-20.54 -9.82,-27.89 -6.51,-7.29 -14.78,-11.85 -24.8,-13.72 -7.35,-1.39 -22.16,-2.09 -44.4,-2.09l-29.82 0zm-61.71 257.15l0 -309.5 99.04 0c37.53,0 61.98,1.54 73.38,4.63 17.52,4.64 32.18,14.76 43.99,30.3 11.82,15.56 17.72,35.65 17.72,60.28 0,19 -3.41,34.99 -10.2,47.92 -6.82,12.95 -15.47,23.13 -25.97,30.52 -10.49,7.36 -21.15,12.27 -31.99,14.67 -14.75,2.94 -36.1,4.44 -64.02,4.44l-40.24 0 0 116.74 -61.71 0z"/>
    <polygon class="fil3" points="7004.18,1508.34 7004.18,1251.19 6913.49,1251.19 6913.49,1198.84 7156.36,1198.84 7156.36,1251.19 7065.89,1251.19 7065.89,1508.34 "/>
    <polygon class="fil3" points="7201.29,1198.84 7259.05,1198.84 7259.05,1404.88 7382.89,1198.84 7444.4,1198.84 7444.4,1508.34 7386.65,1508.34 7386.65,1306.3 7263,1508.34 7201.29,1508.34 "/>
    <path class="fil3" d="M7693.01 1420.08c16.16,0 30.02,-2.71 41.62,-8.21 11.61,-5.49 19.82,-12.91 24.71,-22.16 4.86,-9.3 7.29,-22.9 7.29,-40.77 0,-44.75 -24.54,-67.14 -73.62,-67.14l0 138.28zm-60.45 0l0 -138.28c-25.97,0 -44.73,5.87 -56.29,17.64 -11.53,11.74 -17.28,29.51 -17.28,53.3 0,44.9 24.49,67.34 73.57,67.34zm60.45 52.18l0 36.08 -60.45 0 0 -36.08c-48.77,-1.85 -83.21,-14.05 -103.3,-36.66 -20.09,-22.59 -30.12,-50.84 -30.12,-84.75 0,-35.76 10.49,-64.45 31.49,-86.05 20.97,-21.61 54.96,-33.33 101.93,-35.16l0 -30.6 60.45 0 0 30.6c48.54,1.83 82.91,13.95 103.11,36.33 20.24,22.36 30.36,50.73 30.36,85.08 0,34.08 -10.09,62.32 -30.25,84.77 -20.13,22.45 -54.55,34.59 -103.22,36.44z"/>
    <polygon class="fil3" points="7881.19,1198.84 7938.97,1198.84 7938.97,1404.88 8062.81,1198.84 8124.31,1198.84 8124.31,1508.34 8066.57,1508.34 8066.57,1306.3 7942.9,1508.34 7881.19,1508.34 "/>
    <path class="fil3" d="M8192.56 1198.84l61.72 0 0 131.74c13.77,-1.41 23.08,-5.02 27.95,-10.78 4.86,-5.76 12.37,-21.81 22.52,-48.11 12.76,-33.51 25.64,-54.34 38.56,-62.5 12.79,-8.2 33.45,-12.27 61.92,-12.27 1.4,0 4.38,-0.07 8.96,-0.22l0 46.27 -8.75 -0.22c-12.64,0 -21.89,1.58 -27.71,4.75 -5.86,3.14 -10.6,7.98 -14.2,14.44 -3.6,6.49 -8.97,19.79 -16.05,39.94 -3.76,10.68 -7.82,19.62 -12.18,26.78 -4.41,7.19 -12.14,13.94 -23.26,20.28 13.77,3.95 25.1,11.89 34.1,23.86 8.97,11.96 18.78,28.84 29.48,50.69l41.72 84.85 -72.57 0 -36.48 -80.02c-0.57,-1.14 -1.74,-3.3 -3.54,-6.55 -0.7,-1.1 -3.28,-5.96 -7.72,-14.56 -7.92,-15.2 -14.41,-24.71 -19.52,-28.5 -5.06,-3.8 -12.79,-5.76 -23.23,-5.91l0 135.54 -61.72 0 0 -309.5z"/>
    <path class="fil3" d="M8618.45 1385.91l-42.13 -114.89 -41.28 114.89 83.41 0zm113.61 122.43l-67.12 0 -26.69 -70.3 -122.17 0 -25.23 70.3 -65.47 0 119.04 -309.5 65.26 0 122.38 309.5z"/>
    <polygon class="fil3" points="8816.61,1508.34 8816.61,1251.19 8725.92,1251.19 8725.92,1198.84 8968.79,1198.84 8968.79,1251.19 8878.32,1251.19 8878.32,1508.34 "/>
    <path class="fil3" d="M5811.62 1636.63l92.9 0 0 198.33c20.71,-2.11 34.74,-7.52 42.06,-16.21 7.29,-8.68 18.61,-32.85 33.9,-72.48 19.24,-50.42 38.59,-81.75 58.07,-94.07 19.24,-12.27 50.29,-18.43 93.2,-18.43 2.1,0 6.6,-0.11 13.5,-0.33l0 69.62 -13.18 -0.31c-19.04,0 -32.96,2.38 -41.73,7.15 -8.82,4.77 -15.92,12.03 -21.37,21.75 -5.43,9.76 -13.48,29.8 -24.15,60.1 -5.67,16.1 -11.77,29.55 -18.37,40.35 -6.58,10.8 -18.26,20.98 -34.98,30.5 20.69,5.93 37.8,17.92 51.29,35.91 13.51,18.03 28.32,43.45 44.43,76.28l62.78 127.78 -109.25 0 -54.92 -120.46c-0.83,-1.69 -2.61,-4.99 -5.32,-9.85 -1.07,-1.69 -4.91,-8.99 -11.62,-21.92 -11.92,-22.89 -21.71,-37.21 -29.36,-42.9 -7.62,-5.74 -19.28,-8.71 -34.98,-8.93l0 204.06 -92.9 0 0 -465.94z"/>
    <path class="fil3" d="M6452.66 1918.23l-63.4 -172.9 -62.13 172.9 125.53 0zm171.06 184.34l-101.07 0 -40.17 -105.83 -183.91 0 -37.98 105.83 -98.57 0 179.22 -465.94 98.24 0 184.24 465.94z"/>
    <path class="fil3" d="M6622.91 1636.63l92.9 0 0 111.25c0,36.02 1.31,59.9 3.93,71.66 2.61,11.77 10.43,21.97 23.37,30.68 12.98,8.67 32.03,13.04 57.13,13.04 19.87,0 37.57,-2.18 53.03,-6.53 15.48,-4.33 28.91,-10.73 40.2,-19.22l0 -200.88 92.87 0 0 465.94 -92.87 0 0 -187.53c-18.83,8.49 -37.37,14.89 -55.58,19.23 -18.17,4.35 -36.09,6.53 -53.65,6.53 -45.84,0 -84.17,-10.98 -115.03,-32.9 -30.86,-21.92 -46.3,-59.92 -46.3,-113.95l0 -157.32z"/>
    <polygon class="fil3" points="7088.5,2102.57 7088.5,1636.63 7429.67,1636.63 7429.67,1715.46 7181.42,1715.46 7181.42,1818.75 7412.43,1818.75 7412.43,1897.26 7181.42,1897.26 7181.42,2024.05 7438.47,2024.05 7438.47,2102.57 "/>
    <path class="fil3" d="M7818.08 1931.25l90.07 28.94c-13.81,50.84 -36.78,88.59 -68.88,113.29 -32.14,24.67 -72.9,37.03 -122.25,37.03 -61.12,0 -111.32,-21.13 -150.67,-63.41 -39.33,-42.27 -58.98,-100.06 -58.98,-173.37 0,-77.54 19.76,-137.77 59.31,-180.67 39.54,-42.93 91.52,-64.37 155.98,-64.37 56.26,0 102,16.85 137.15,50.54 20.94,19.92 36.64,48.52 47.08,85.8l-91.94 22.23c-5.45,-24.12 -16.81,-43.19 -34.07,-57.19 -17.27,-13.99 -38.22,-20.96 -62.94,-20.96 -34.09,0 -61.77,12.38 -82.99,37.16 -21.26,24.81 -31.86,64.96 -31.86,120.46 0,58.91 10.45,100.87 31.38,125.87 20.92,25.01 48.12,37.52 81.61,37.52 24.69,0 45.91,-7.96 63.71,-23.84 17.79,-15.9 30.53,-40.92 38.29,-75.03z"/>
    <polygon class="fil3" points="8081.88,2102.57 8081.88,1715.46 7945.35,1715.46 7945.35,1636.63 8310.98,1636.63 8310.98,1715.46 8174.78,1715.46 8174.78,2102.57 "/>
    <path class="fil3" d="M8470.59 1899.48l0 124.57 85.99 0c33.49,0 54.72,-0.95 63.72,-2.86 13.81,-2.53 25.06,-8.73 33.72,-18.58 8.71,-9.85 13.05,-23.05 13.05,-39.56 0,-13.99 -3.34,-25.86 -10.06,-35.6 -6.7,-9.77 -16.37,-16.85 -29.03,-21.29 -12.66,-4.46 -40.13,-6.68 -82.39,-6.68l-75 0zm0 -185.29l0 107.75 60.89 0c36.2,0 58.7,-0.55 67.47,-1.58 15.92,-1.92 28.4,-7.48 37.52,-16.7 9.1,-9.23 13.64,-21.34 13.64,-36.39 0,-14.42 -3.93,-26.12 -11.77,-35.11 -7.86,-9.02 -19.52,-14.47 -35,-16.39 -9.21,-1.06 -35.66,-1.58 -79.4,-1.58l-53.35 0zm-92.9 -77.56l183.91 0c36.41,0 63.56,1.54 81.44,4.62 17.91,3.08 33.91,9.48 48.03,19.22 14.14,9.74 25.91,22.72 35.31,38.92 9.42,16.23 14.14,34.39 14.14,54.51 0,21.84 -5.83,41.85 -17.44,60.08 -11.6,18.23 -27.37,31.91 -47.24,41.01 28.04,8.27 49.58,22.34 64.68,42.27 15.04,19.92 22.58,43.31 22.58,70.23 0,21.2 -4.87,41.78 -14.59,61.82 -9.73,20.03 -23.02,36.01 -39.86,47.97 -16.84,11.99 -37.63,19.36 -62.3,22.11 -15.48,1.69 -52.85,2.75 -112.05,3.18l-156.61 0 0 -465.94z"/>
    <path class="fil3" d="M9059.86 1918.23l-63.41 -172.9 -62.12 172.9 125.53 0zm171.06 184.34l-101.09 0 -40.15 -105.83 -183.93 0 -37.98 105.83 -98.55 0 179.22 -465.94 98.22 0 184.26 465.94z"/>
    <path class="fil3" d="M7109.41 973.64l0 -36.31c26.28,-23.97 47.25,-45.06 62.89,-63.31 15.63,-18.27 26.38,-32.83 32.22,-43.71 5.89,-10.89 8.82,-21.6 8.82,-32.17 0,-10.75 -3.26,-19.29 -9.8,-25.56 -6.49,-6.26 -15.19,-9.41 -26.03,-9.41 -10.43,0 -20.63,2.49 -30.62,7.44 -9.99,4.94 -19.11,11.91 -27.38,20.95l-8.15 -39.94c8.91,-8.99 19.87,-16.02 32.92,-21.1 13.01,-5.06 26.58,-7.59 40.72,-7.59 23.22,0 41.74,6.27 55.53,18.82 13.79,12.52 20.69,29.36 20.69,50.47 0,15.84 -3.97,31.82 -11.9,47.98 -7.9,16.16 -20.56,34.13 -37.93,53.92 -7.39,8.36 -19.87,21 -37.47,37.94l94.47 0 0 41.58 -158.98 0z"/>
    <path class="fil3" d="M7392.17 937c26.49,0 39.74,-28.69 39.74,-86.07 0,-57.41 -13.25,-86.11 -39.74,-86.11 -26.3,0 -39.44,28.7 -39.44,86.11 0,57.38 13.14,86.07 39.44,86.07zm0 41.91c-28.01,0 -49.84,-11.27 -65.49,-33.81 -15.62,-22.54 -23.46,-53.92 -23.46,-94.17 0,-40.26 7.84,-71.64 23.46,-94.16 15.65,-22.56 37.48,-33.84 65.49,-33.84 28.01,0 49.88,11.35 65.62,33.97 15.75,22.68 23.61,53.99 23.61,94.03 0,40.02 -7.86,71.36 -23.61,93.99 -15.74,22.65 -37.61,33.99 -65.62,33.99z"/>
    <polygon class="fil3" points="7586.96,776.03 7524.07,804.4 7516.58,763.83 7596.38,728.21 7632.86,728.21 7632.86,973.64 7586.96,973.64 "/>
    <path class="fil3" d="M7778.47 845.64c11.72,0 21.5,-3.94 29.33,-11.88 7.8,-7.91 11.73,-18.01 11.73,-30.35 0,-12.09 -3.86,-22.1 -11.6,-30.01 -7.68,-7.9 -17.52,-11.88 -29.46,-11.88 -11.73,0 -21.44,3.92 -29.17,11.75 -7.69,7.78 -11.55,17.85 -11.55,30.14 0,12.56 3.76,22.72 11.25,30.53 7.47,7.8 17.31,11.7 29.47,11.7zm-59.61 127.01c41.26,-34.55 69.92,-68.63 85.99,-102.28 -9.55,7.48 -22.47,11.22 -38.76,11.22 -13.46,0 -25.84,-3.17 -37.13,-9.57 -11.3,-6.37 -20.31,-15.39 -27.02,-27.04 -6.75,-11.64 -10.12,-24.96 -10.12,-39.92 0,-15.39 3.54,-29.29 10.6,-41.71 7.04,-12.43 17.13,-22.25 30.29,-29.51 13.14,-7.28 28.39,-10.91 45.76,-10.91 26.49,0 47.56,7.83 63.19,23.44 15.64,15.61 23.45,36.61 23.45,62.98 0,26.63 -8.21,54.89 -24.6,84.77 -16.39,29.93 -38.26,56.62 -65.63,80.15l-56.02 -1.62z"/>
    <path class="fil9" d="M5050.7 2603.46c0,-1367.64 1098.73,-2480.26 2449.31,-2480.26 1350.54,0 2449.3,1112.62 2449.3,2480.26 0,622.84 -227.95,1192.73 -603.75,1628.79l66.62 0c366.56,-440.57 587.82,-1008.96 587.82,-1628.79 0,-1395.94 -1121.51,-2531.58 -2499.99,-2531.58 -1378.53,0 -2500.02,1135.64 -2500.02,2531.58 0,619.83 221.25,1188.22 587.8,1628.79l66.63 0c-375.78,-436.06 -603.72,-1005.95 -603.72,-1628.79z"/>
    <path class="fil9" d="M5106.35 2603.46c0,-1336.54 1073.78,-2423.9 2393.66,-2423.9 1319.85,0 2393.65,1087.36 2393.65,2423.9 0,626.43 -235.9,1198.14 -622.46,1628.79l34.7 0c381.48,-433.24 613.73,-1004.04 613.73,-1628.79 0,-1351.06 -1085.43,-2450.2 -2419.62,-2450.2 -1334.21,0 -2419.65,1099.14 -2419.65,2450.2 0,624.75 232.25,1195.55 613.75,1628.79l34.69 0c-386.55,-430.65 -622.45,-1002.36 -622.45,-1628.79z"/>
    <path class="fil9" d="M8069.31 4463.03c0,28.61 23.08,51.95 51.31,51.95 28.38,0 51.31,-23.34 51.31,-51.95 0,-28.63 -22.93,-51.96 -51.31,-51.96 -28.23,0 -51.31,23.33 -51.31,51.96z"/>
    <path class="fil9" d="M6945.91 4579.22c-52.7,0 -99.02,10.03 -141.41,30.72l-2.58 1.33 0.95 74.56 6.73 -3.89c40.54,-22.95 78.88,-34.63 113.83,-34.63 62.48,0 98.27,36.22 98.27,99.52l0 3.68 -49.32 0c-142.02,0 -220.26,52.04 -220.26,146.63 0,75.86 56.59,128.75 137.27,128.75 59.54,0 105.34,-23.58 138.17,-68.04l0 62.27 77.89 0 0 -260.76c0,-119.5 -53.57,-180.14 -159.54,-180.14zm75.79 259.16c0,74.21 -44.13,122.11 -112.36,122.11 -41.76,0 -70.85,-27.8 -70.85,-67.64 0,-52.18 49.22,-80.9 138.78,-80.9l44.43 0 0 26.43z"/>
    <path class="fil9" d="M7471.8 4383.65l0 264.18c-31.66,-44.92 -75.9,-68.61 -133.03,-68.61 -105.39,0 -176.07,87.9 -176.07,218.7 0,134.77 71.66,228.8 174.53,228.8 60.93,0 108.21,-27.22 141.32,-80.33l0 73.73 79.72 0 0 -636.47 -86.47 0zm-112.25 570.93c-65.67,0 -106.47,-58.06 -106.47,-151.56 0,-93.57 41.11,-154.13 104.93,-154.13 71.36,0 113.79,57.73 113.79,154.13 0,92.03 -44.02,151.56 -112.25,151.56z"/>
    <polygon class="fil9" points="7943.62,4589.25 7821.29,4837.89 7708.15,4589.25 7610.93,4589.25 7819.53,5020.12 8033.8,4589.25 "/>
    <polygon class="fil9" points="8159.36,4589.25 8077.62,4589.25 8077.62,5020.12 8163.94,5020.12 8163.94,4589.25 "/>
    <path class="fil9" d="M8265.01 4699.71c0,60.67 41.17,92.66 116.98,130.22 47.99,23.75 72.9,37.74 72.9,71.31 0,34.42 -30.71,56.69 -78.31,56.69 -33.74,0 -71.14,-9.65 -108.23,-28.07l-6.34 -3.04 -2.8 75.82 2.88 1.16c35.38,14.13 72.82,21.34 111.24,21.34 105.55,0 173.72,-51.02 173.72,-129.81 0,-65.76 -43.35,-98.98 -118.03,-134.38 -54.81,-25.9 -77.67,-41.25 -77.67,-68.72 0,-26.27 25.56,-43.34 65.02,-43.34 35.65,0 70.44,8.12 103.38,23.99l6.13 2.95 3.93 -74.37 -3.54 -1.17c-35.73,-10.62 -71.05,-15.87 -104.91,-15.87 -93.47,0 -156.35,46.26 -156.35,115.29z"/>
    <path class="fil9" d="M8815.95 4579.22c-129.62,0 -210.09,86.4 -210.09,225.45 0,139.06 80.47,225.39 210.09,225.39 130.3,0 211.23,-86.33 211.23,-225.39 0,-139.05 -80.93,-225.45 -211.23,-225.45zm1.01 379.55c-71.74,0 -119.79,-62.25 -119.79,-154.83 0,-93.19 48.05,-155.78 119.79,-155.78 72.79,0 119.75,61.05 119.75,155.78 0,94.03 -46.96,154.83 -119.75,154.83z"/>
    <path class="fil9" d="M9186.29 4659.07l0 -69.79 -78.72 0 0 430.84 86.1 0 0 -216.18c0,-90.77 37.71,-140.58 105.74,-140.58 9.86,0 19.44,1.43 31.07,4.79l5.71 1.59 2.81 -85.12 -37.07 -2.91c-49.88,0 -90.38,27.4 -115.64,77.36z"/>
    <path class="fil10" d="M9488.79 4702.88c-20.78,0 -40.02,-8.4 -54.72,-23.82 -14.33,-14.86 -22.15,-33.93 -22.15,-54.24 0,-20.84 8.21,-40.93 23.5,-56.08 14.33,-14.39 32.59,-22.1 53.37,-22.1 21.31,0 40.74,8.22 55.55,23.57 14.29,14.62 21.52,33.77 21.52,54.61 0,21.56 -7.97,41 -22.82,55.41 -15.18,14.71 -34.38,22.65 -54.25,22.65zm0.2 -142.13c-17.03,0 -32.08,6.29 -43.96,18 -12.41,12.73 -18.98,28.89 -18.98,46.07 0,16.62 6.15,31.97 17.88,44.17 12.03,12.6 28.03,19.55 44.86,19.55 16.42,0 32.29,-6.51 44.65,-18.41 11.97,-11.76 18.61,-27.86 18.61,-45.31 0,-17.18 -6.23,-32.74 -17.87,-44.8 -12.25,-12.65 -27.95,-19.27 -45.19,-19.27zm-9.56 34.26l0 22.97 8.34 0c10.19,0 15.14,-3.68 15.14,-11.07 0,-8.4 -5.24,-11.9 -16.53,-11.9l-6.95 0zm48.32 70.81l-25.54 0 -15.92 -33.97 -6.86 0 0 33.97 -23.13 0 0 -85.63 34.03 0c24.11,0 36.6,8.89 36.6,24.85 0,11.29 -6.67,19.78 -18.05,23.16l18.87 37.62zm0 0l0 0z"/>
    <path class="fil3" d="M6859.68 2871.98c-284.52,0 -515.77,234.32 -515.77,522.39 0,287.74 231.25,521.91 515.77,521.91 284.32,0 515.53,-234.17 515.53,-521.91 0,-288.07 -231.21,-522.39 -515.53,-522.39z"/>
    <path class="fil3" d="M7923.33 2782.77c67.04,-25.05 135.59,-37.56 203.39,-39.65 -184.86,-83.85 -394.38,-126.25 -626.17,-126.25 -230.36,0 -442.95,43.67 -627.95,123.72 334.44,6.73 606.71,271.81 630.69,606.1 5.92,-76.5 24.43,-152.1 56.89,-223.85 72.34,-158.74 201.26,-279.63 363.15,-340.07z"/>
    <path class="fil3" d="M7968.56 2906.74c-129.2,48.29 -232.15,144.78 -289.81,271.36 -57.44,126.7 -62.98,268.61 -15.16,399.38l0 0.08c47.56,130.63 142.61,234.9 267.69,293.26 125.28,58.52 265.41,64.08 394.62,15.77 266.75,-99.92 403.65,-400.85 305.21,-670.87 -98.5,-270.16 -395.68,-408.64 -662.55,-308.98z"/>
    <path class="fil3" d="M8325.9 3886.59c-129.21,48.31 -269.34,42.75 -394.62,-15.77 -125.08,-58.36 -220.13,-162.63 -267.69,-293.26l0 -0.08c-47.82,-130.77 -42.28,-272.68 15.16,-399.38 57.66,-126.58 160.61,-223.07 289.81,-271.36 266.87,-99.66 564.05,38.82 662.55,308.98 98.44,270.02 -38.46,570.95 -305.21,670.87zm-822.61 -539.9c-23.98,-334.29 -296.25,-599.37 -630.69,-606.1 185,-80.05 397.59,-123.72 627.95,-123.72 231.79,0 441.31,42.4 626.17,126.25 -67.8,2.09 -136.35,14.6 -203.39,39.65 -161.89,60.44 -290.81,181.33 -363.15,340.07 -32.46,71.75 -50.97,147.35 -56.89,223.85zm-643.61 569.59c-284.52,0 -515.77,-234.17 -515.77,-521.91 0,-288.07 231.25,-522.39 515.77,-522.39 284.32,0 515.53,234.32 515.53,522.39 0,287.74 -231.21,521.91 -515.53,521.91zm1893.77 -746.32c-21.82,-59.99 -51.83,-114.32 -87.66,-163.14 30.45,-130.97 127.15,-261.61 127.15,-261.61l-431.08 -0.34c-241.96,-158.19 -535.75,-242.1 -861.31,-242.1 -337.57,0 -642.43,86.02 -883,245.18l-404.5 0.29c0,0 95.36,129.19 126.43,259.28 -78.89,108.46 -126.12,241.98 -126.12,386.85 0,360.63 289.92,654.13 646.32,654.13 203.46,0 385.17,-96.05 503.58,-245.5l137.51 208.58 138.91 -210.4c62.3,80.4 142.63,145.48 236.9,189.58 157,73.16 332.55,80.35 494.51,19.76 334.33,-125.27 505.75,-502.42 382.36,-840.56z"/>
    <path class="fil3" d="M5633.09 4459.45l-77.67 27.14 0 102.69 -86.23 0 0 68.96 83.7 0 0 221.24c0,105.18 35.41,148.12 122.17,148.12 22.14,0 43.22,-2.75 64.3,-8.56l3.44 -0.83 -0.94 -71.44 -6.02 2.1c-17.01,6.14 -30.31,9.06 -40.8,9.06 -40.76,0 -55.9,-23.32 -55.9,-86.04l0 -213.65 99.52 0 0 -68.96 -99.52 0 0 -131.94 -6.05 2.11z"/>
    <path class="fil3" d="M5902.06 4659.07l0 -69.79 -78.84 0 0 430.84 86.21 0 0 -216.18c0,-90.77 37.61,-140.58 105.75,-140.58 9.77,0 19.37,1.43 31.03,4.79l5.58 1.59 2.87 -85.12 -37.01 -2.91c-49.99,0 -90.36,27.4 -115.59,77.36z"/>
    <path class="fil3" d="M6517.53 4579.22c-59.05,0 -108.97,28.53 -142.16,80.07l0 -70.04 -78.71 0 0 606.33 86.23 0 0 -235.09c31.16,42.79 75.92,66.23 131.49,66.23 109.08,0 179.44,-90.42 179.44,-230.37 0,-129.78 -70.77,-217.13 -176.29,-217.13zm-23.93 377.02c-68.37,0 -110.71,-59.1 -110.71,-154.1 0,-91.5 44.8,-150.58 113.9,-150.58 66.76,0 106.67,56.03 106.67,149.72 0,95.68 -42.11,154.96 -109.86,154.96z"/>
    <polygon class="fil3" points="6208.47,4589.25 6126.69,4589.25 6126.69,5020.12 6213.05,5020.12 6213.05,4589.25 "/>
    <path class="fil3" d="M6118.33 4463.03c0,28.61 23.17,51.95 51.4,51.95 28.23,0 51.22,-23.34 51.22,-51.95 0,-28.63 -22.99,-51.96 -51.22,-51.96 -28.23,0 -51.4,23.33 -51.4,51.96z"/>
    <path class="fil11" d="M7923.33 2782.77c67.04,-25.05 135.59,-37.56 203.39,-39.65 -184.86,-83.85 -394.38,-126.25 -626.17,-126.25 -230.36,0 -442.95,43.67 -627.95,123.72 334.44,6.73 606.71,271.81 630.69,606.1 5.92,-76.5 24.43,-152.1 56.89,-223.85 72.34,-158.74 201.26,-279.63 363.15,-340.07z"/>
    <path class="fil6" d="M8145.98 3711.57c-175.96,0 -319.2,-144.96 -319.2,-323.13 0,-178.08 143.24,-323.04 319.2,-323.04 175.86,0 318.79,144.96 318.79,323.04 0,178.17 -142.93,323.13 -318.79,323.13zm-177.42 -804.83c-129.2,48.29 -232.15,144.78 -289.81,271.36 -57.44,126.7 -62.98,268.61 -15.16,399.38l0 0.08c47.56,130.63 142.61,234.9 267.69,293.26 125.28,58.52 265.41,64.08 394.62,15.77 266.75,-99.92 403.65,-400.85 305.21,-670.87 -98.5,-270.16 -395.68,-408.64 -662.55,-308.98z"/>
    <path class="fil6" d="M8145.98 3497.19c-59.61,0 -107.4,-48.79 -107.4,-108.78 0,-60.12 47.79,-108.65 107.4,-108.65 59.2,0 107.21,48.53 107.21,108.65 0,59.99 -48.01,108.78 -107.21,108.78zm0 -320.5c-115.55,0 -209.31,95 -209.31,211.75 0,116.74 93.76,211.89 209.31,211.89 115.19,0 209.02,-95.15 209.02,-211.89 0,-116.75 -93.83,-211.75 -209.02,-211.75z"/>
    <path class="fil6" d="M6851.28 3497.19c-59.42,0 -107.54,-48.79 -107.54,-108.78 0,-60.12 48.12,-108.65 107.54,-108.65 59.17,0 107.29,48.53 107.29,108.65 0,59.99 -48.12,108.78 -107.29,108.78zm0.3 -320.5c-115.51,0 -209.54,95 -209.54,211.75 0,116.74 94.03,211.89 209.54,211.89 115.09,0 208.82,-95.15 208.82,-211.89 0,-116.75 -93.73,-211.75 -208.82,-211.75z"/>
    <path class="fil6" d="M6851.58 3711.57c-176.2,0 -319.33,-144.96 -319.33,-323.13 0,-178.08 143.13,-323.04 319.33,-323.04 175.81,0 318.7,144.96 318.7,323.04 0,178.17 -142.89,323.13 -318.7,323.13zm8.1 -839.59c-284.52,0 -515.77,234.32 -515.77,522.39 0,287.74 231.25,521.91 515.77,521.91 284.32,0 515.53,-234.17 515.53,-521.91 0,-288.07 -231.21,-522.39 -515.53,-522.39z"/>
    <path class="fil12" d="M6851.28 3279.76c-59.42,0 -107.54,48.53 -107.54,108.65 0,59.99 48.12,108.78 107.54,108.78 59.17,0 107.29,-48.79 107.29,-108.78 0,-60.12 -48.12,-108.65 -107.29,-108.65z"/>
    <path class="fil9" d="M8145.98 3279.76c-59.61,0 -107.4,48.53 -107.4,108.65 0,59.99 47.79,108.78 107.4,108.78 59.2,0 107.21,-48.79 107.21,-108.78 0,-60.12 -48.01,-108.65 -107.21,-108.65z"/>
    <path class="fil3" d="M6851.58 3600.33c-115.51,0 -209.54,-95.15 -209.54,-211.89 0,-116.75 94.03,-211.75 209.54,-211.75 115.09,0 208.82,95 208.82,211.75 0,116.74 -93.73,211.89 -208.82,211.89zm0 -534.93c-176.2,0 -319.33,144.96 -319.33,323.04 0,178.17 143.13,323.13 319.33,323.13 175.81,0 318.7,-144.96 318.7,-323.13 0,-178.08 -142.89,-323.04 -318.7,-323.04z"/>
    <path class="fil3" d="M8145.98 3600.33c-115.55,0 -209.31,-95.15 -209.31,-211.89 0,-116.75 93.76,-211.75 209.31,-211.75 115.19,0 209.02,95 209.02,211.75 0,116.74 -93.83,211.89 -209.02,211.89zm0 -534.93c-175.96,0 -319.2,144.96 -319.2,323.04 0,178.17 143.24,323.13 319.2,323.13 175.86,0 318.79,-144.96 318.79,-323.13 0,-178.08 -142.93,-323.04 -318.79,-323.04z"/>
    <path class="fil3" d="M9033.74 2744.41c13.77,14.17 21.06,32.92 21.06,53.09 0,21.2 -7.77,40.17 -22.3,54.16 -14.78,14.27 -33.61,22.01 -53.09,22.01 -19.94,0 -38.81,-8.01 -53.29,-23.11 -13.99,-14.56 -21.59,-33.12 -21.59,-53.06 0,-20.17 8.1,-39.87 22.78,-54.64 14.22,-13.97 32.16,-21.47 52.1,-21.47 20.89,0 39.87,7.92 54.33,23.02zm-96.9 8.29c-12.14,12.41 -18.43,28.22 -18.43,44.8 0,16.45 5.92,31.44 17.42,43.23 11.66,12.31 27.16,18.98 43.58,18.98 16.24,0 31.72,-6.27 43.56,-17.86 11.77,-11.58 18.24,-27.18 18.24,-44.35 0,-16.58 -6.08,-31.89 -17.44,-43.59 -11.92,-12.2 -27.12,-18.75 -43.95,-18.75 -16.83,0 -31.42,6.04 -42.98,17.54zm44.18 1.43c23.73,0 35.59,8.62 35.59,24.19 0,10.91 -6.39,19.18 -17.42,22.59l18.24 36.76 -24.84 0 -15.48 -33.29 -6.71 0 0 33.29 -22.59 0 0 -83.54 33.21 0zm-10.62 36.73l8.12 0c9.92,0 14.76,-3.48 14.76,-10.89 0,-7.98 -5.06,-11.36 -15.98,-11.36l-6.9 0 0 22.25z"/>
    <path class="fil6" d="M8145.98 3497.19c-59.61,0 -107.4,-48.79 -107.4,-108.78 0,-60.12 47.79,-108.65 107.4,-108.65 59.2,0 107.21,48.53 107.21,108.65 0,59.99 -48.01,108.78 -107.21,108.78zm0 -320.5c-115.55,0 -209.31,95 -209.31,211.75 0,116.74 93.76,211.89 209.31,211.89 115.19,0 209.02,-95.15 209.02,-211.89 0,-116.75 -93.83,-211.75 -209.02,-211.75z"/>
   </g>
   <path class="fil0" d="M5444.38 6428.12l0 -286.41 86.87 0 51.33 195.34 50.74 -195.34 87.06 0 0 286.41 -53.6 0 -0.2 -225.48 -56.46 225.48 -55.74 0 -56.2 -225.48 -0.2 225.48 -53.6 0zm405.76 0l0 -286.41 58 0 0 286.41 -58 0zm186.9 0l0 -286.41 56.14 0 117.86 191.93 0 -191.93 53.6 0 0 286.41 -57.93 0 -116.07 -188.28 0 188.28 -53.6 0zm337.43 0l0 -52.01 150.93 -186 -133.73 0 0 -48.4 209.6 0 0 44.8 -156.8 193.2 162.8 0 0 48.41 -232.8 0zm341.3 0l0 -286.41 58 0 0 286.41 -58 0zm186.9 0l0 -286.41 196.79 0 0 48.4 -138.79 0 0 68 120 0 0 48.4 -120 0 0 121.61 -58 0zm554.03 0l-62.47 0 -24.74 -65.2 -114.87 0 -23.8 65.2 -61.33 0 111.2 -286.41 61.27 0 114.74 286.41zm-106.01 -113.61l-39.8 -105.99 -38.66 105.99 78.46 0zm371.31 113.61l0 -238.01 -84.8 0 0 -48.4 227.2 0 0 48.4 -84.41 0 0 238.01 -57.99 0zm253.69 0l0 -286.41 121.8 0c30.6,0 52.87,2.6 66.73,7.74 13.94,5.13 25.01,14.26 33.34,27.39 8.34,13.21 12.53,28.21 12.53,45.14 0,21.53 -6.27,39.26 -18.86,53.27 -12.61,14 -31.4,22.8 -56.47,26.46 12.46,7.27 22.73,15.27 30.8,24.01 8.13,8.73 19.07,24.26 32.8,46.53l34.93 55.87 -69.13 0 -41.47 -62.54c-14.86,-22.19 -25.07,-36.2 -30.6,-42 -5.47,-5.74 -11.27,-9.74 -17.4,-11.87 -6.2,-2.13 -15.93,-3.2 -29.27,-3.2l-11.73 0 0 119.61 -58 0zm58 -165.21l42.8 0c27.73,0 45.01,-1.19 51.93,-3.53 6.87,-2.33 12.34,-6.4 16.21,-12.13 3.92,-5.74 5.86,-12.94 5.86,-21.54 0,-9.67 -2.6,-17.4 -7.73,-23.4 -5.13,-5.93 -12.4,-9.67 -21.74,-11.2 -4.73,-0.66 -18.8,-1 -42.2,-1l-45.13 0 0 72.8zm562.63 165.21l-62.46 0 -24.74 -65.2 -114.87 0 -23.8 65.2 -61.33 0 111.2 -286.41 61.27 0 114.73 286.41zm-106 -113.61l-39.8 -105.99 -38.67 105.99 78.47 0zm254.23 113.61l-102.47 -286.41 62.67 0 72.73 212 69.79 -212 61.61 0 -101.87 286.41 -62.46 0zm267.3 0l0 -286.41 212 0 0 48.4 -154 0 0 63.61 143.19 0 0 48.39 -143.19 0 0 77.6 159.59 0 0 48.41 -217.59 0zm342.16 0l0 -284 58.01 0 0 235.59 143.59 0 0 48.41 -201.6 0z"/>
  </g>
 </g>
</svg>
