<?xml version="1.0" encoding="UTF-8"?>
<!DOCTYPE svg PUBLIC "-//W3C//DTD SVG 1.1//EN" "http://www.w3.org/Graphics/SVG/1.1/DTD/svg11.dtd">
<!-- Creator: CorelDRAW 2018 (64-Bit) -->
<svg xmlns="http://www.w3.org/2000/svg" xml:space="preserve" width="1772px" height="1181px" version="1.1" style="shape-rendering:geometricPrecision; text-rendering:geometricPrecision; image-rendering:optimizeQuality; fill-rule:evenodd; clip-rule:evenodd"
viewBox="0 0 1772 1181.33"
 xmlns:xlink="http://www.w3.org/1999/xlink"
 xmlns:dc="http://purl.org/dc/elements/1.1/"
 xmlns:cc="http://creativecommons.org/ns#"
 xmlns:rdf="http://www.w3.org/1999/02/22-rdf-syntax-ns#"
 xmlns:svg="http://www.w3.org/2000/svg">
 <defs>
  <style type="text/css">
   <![CDATA[
    .fil2 {fill:none}
    .fil0 {fill:white}
    .fil1 {fill:url(#id1);fill-rule:nonzero}
   ]]>
  </style>
    <clipPath id="id0">
     <path d="M912.38 501.25c-0.88,69.08 61.56,107.63 108.6,130.55 48.33,23.52 64.56,38.6 64.38,59.63 -0.37,32.19 -38.56,46.39 -74.3,46.94 -62.34,0.97 -98.59,-16.83 -127.41,-30.29l-22.46 105.09c28.91,13.33 82.45,24.95 137.98,25.46 130.32,0 215.59,-64.33 216.05,-164.08 0.5,-126.59 -175.1,-133.6 -173.91,-190.18 0.42,-17.16 16.79,-35.46 52.67,-40.12 17.75,-2.35 66.77,-4.15 122.34,21.44l21.81 -101.68c-29.88,-10.88 -68.29,-21.31 -116.11,-21.31 -122.67,0 -208.95,65.21 -209.64,158.55l0 0zm535.35 -149.78c-23.79,0 -43.85,13.88 -52.8,35.18l-186.17 444.51 130.23 0 25.92 -71.62 159.14 0 15.03 71.62 114.79 0 -100.17 -479.69 -105.97 0 0 0zm18.22 129.58l37.58 180.13 -102.93 0 65.35 -180.13 0 0zm-711.47 -129.58l-102.65 479.69 124.09 0 102.61 -479.69 -124.05 0 0 0zm-183.59 0l-129.17 326.49 -52.24 -277.61c-6.14,-30.99 -30.35,-48.88 -57.23,-48.88l-211.17 0 -2.95 13.92c43.35,9.41 92.6,24.58 122.44,40.82 18.26,9.91 23.47,18.58 29.47,42.14l98.96 382.81 131.16 0 201.06 -479.69 -130.32 0 -0.01 0zm0 0l0 0 0 0z"/>
    </clipPath>
  <linearGradient id="id1" gradientUnits="userSpaceOnUse" x1="-42.69" y1="401.93" x2="-27.31" y2="401.93">
   <stop offset="0" style="stop-opacity:1; stop-color:#222357"/>
   <stop offset="1" style="stop-opacity:1; stop-color:#254AA5"/>
  </linearGradient>
 </defs>
 <g id="Слой_x0020_1">
  <metadata id="CorelCorpID_0Corel-Layer"/>
  <g id="_2829994789184">
   <rect class="fil0" width="1772" height="1181.33" rx="73.21" ry="118.13"/>
   <g>
   </g>
   <g style="clip-path:url(#id0)">
    <g id="_2829994791360">
     <path id="path10283" class="fil1" d="M-42.69 401.93l1513.16 -557.26 344.23 934.75 -1513.14 557.26m-344.25 -934.75l0 0 0 0z"/>
    </g>
   </g>
   <path class="fil2" d="M912.38 501.25c-0.88,69.08 61.56,107.63 108.6,130.55 48.33,23.52 64.56,38.6 64.38,59.63 -0.37,32.19 -38.56,46.39 -74.3,46.94 -62.34,0.97 -98.59,-16.83 -127.41,-30.29l-22.46 105.09c28.91,13.33 82.45,24.95 137.98,25.46 130.32,0 215.59,-64.33 216.05,-164.08 0.5,-126.59 -175.1,-133.6 -173.91,-190.18 0.42,-17.16 16.79,-35.46 52.67,-40.12 17.75,-2.35 66.77,-4.15 122.34,21.44l21.81 -101.68c-29.88,-10.88 -68.29,-21.31 -116.11,-21.31 -122.67,0 -208.95,65.21 -209.64,158.55m535.35 -149.78c-23.79,0 -43.85,13.88 -52.8,35.18l-186.17 444.51 130.23 0 25.92 -71.62 159.14 0 15.03 71.62 114.79 0 -100.17 -479.69 -105.97 0m18.22 129.58l37.58 180.13 -102.93 0 65.35 -180.13m-711.47 -129.58l-102.65 479.69 124.09 0 102.61 -479.69 -124.05 0m-183.59 0l-129.17 326.49 -52.24 -277.61c-6.14,-30.99 -30.35,-48.88 -57.23,-48.88l-211.17 0 -2.95 13.92c43.35,9.41 92.6,24.58 122.44,40.82 18.26,9.91 23.47,18.58 29.47,42.14l98.96 382.81 131.16 0 201.06 -479.69 -130.32 0m-0.01 0l0 0 0 0z"/>
  </g>
 </g>
</svg>
